<?xml version="1.0" encoding="utf-8" standalone="no"?>
<!DOCTYPE svg PUBLIC "-//W3C//DTD SVG 1.1//EN"
  "http://www.w3.org/Graphics/SVG/1.1/DTD/svg11.dtd">
<svg xmlns:xlink="http://www.w3.org/1999/xlink" width="1368pt" height="705.831641pt" viewBox="0 0 1368 705.831641" xmlns="http://www.w3.org/2000/svg" version="1.1">
 <metadata>
  <rdf:RDF xmlns:dc="http://purl.org/dc/elements/1.1/" xmlns:cc="http://creativecommons.org/ns#" xmlns:rdf="http://www.w3.org/1999/02/22-rdf-syntax-ns#">
   <cc:Work>
    <dc:type rdf:resource="http://purl.org/dc/dcmitype/StillImage"/>
    <dc:date>2026-04-09T12:45:40.535375</dc:date>
    <dc:format>image/svg+xml</dc:format>
    <dc:creator>
     <cc:Agent>
      <dc:title>Matplotlib v3.10.0, https://matplotlib.org/</dc:title>
     </cc:Agent>
    </dc:creator>
   </cc:Work>
  </rdf:RDF>
 </metadata>
 <defs>
  <style type="text/css">*{stroke-linejoin: round; stroke-linecap: butt}</style>
 </defs>
 <g id="figure_1">
  <g id="patch_1">
   <path d="M 0 705.831641 
L 1368 705.831641 
L 1368 0 
L 0 0 
z
" style="fill: #f8fafc"/>
  </g>
  <g id="axes_1">
   <g id="table_1">
    <g id="patch_2">
     <path d="M 74.88 184.4496 
L 142.56 184.4496 
L 142.56 144.5328 
L 74.88 144.5328 
z
" style="fill: #1e293b; stroke: #0f172a; stroke-width: 1.2; stroke-linejoin: miter"/>
    </g>
    <g id="text_1">
     <!-- ?? -->
     <g style="fill: #ffffff" transform="translate(102.454312 167.471325) scale(0.108 -0.108)">
      <defs>
       <path id="DejaVuSans-Bold-3f" d="M 2216 1575 
L 1088 1575 
L 1088 1728 
Q 1088 1984 1191 2182 
Q 1294 2381 1625 2688 
L 1825 2869 
Q 2003 3031 2086 3175 
Q 2169 3319 2169 3463 
Q 2169 3681 2019 3804 
Q 1869 3928 1600 3928 
Q 1347 3928 1053 3823 
Q 759 3719 441 3513 
L 441 4494 
Q 819 4625 1131 4687 
Q 1444 4750 1734 4750 
Q 2497 4750 2897 4439 
Q 3297 4128 3297 3531 
Q 3297 3225 3175 2983 
Q 3053 2741 2759 2463 
L 2559 2284 
Q 2347 2091 2281 1973 
Q 2216 1856 2216 1716 
L 2216 1575 
z
M 1088 1113 
L 2216 1113 
L 2216 0 
L 1088 0 
L 1088 1113 
z
" transform="scale(0.015625)"/>
      </defs>
      <use xlink:href="#DejaVuSans-Bold-3f"/>
      <use xlink:href="#DejaVuSans-Bold-3f" transform="translate(58.007812 0)"/>
     </g>
    </g>
    <g id="patch_3">
     <path d="M 142.56 184.4496 
L 291.456 184.4496 
L 291.456 144.5328 
L 142.56 144.5328 
z
" style="fill: #1e293b; stroke: #0f172a; stroke-width: 1.2; stroke-linejoin: miter"/>
    </g>
    <g id="text_2">
     <!-- ?? -->
     <g style="fill: #ffffff" transform="translate(210.742312 167.471325) scale(0.108 -0.108)">
      <use xlink:href="#DejaVuSans-Bold-3f"/>
      <use xlink:href="#DejaVuSans-Bold-3f" transform="translate(58.007812 0)"/>
     </g>
    </g>
    <g id="patch_4">
     <path d="M 291.456 184.4496 
L 399.744 184.4496 
L 399.744 144.5328 
L 291.456 144.5328 
z
" style="fill: #1e293b; stroke: #0f172a; stroke-width: 1.2; stroke-linejoin: miter"/>
    </g>
    <g id="text_3">
     <!-- ?? -->
     <g style="fill: #ffffff" transform="translate(339.334312 167.471325) scale(0.108 -0.108)">
      <use xlink:href="#DejaVuSans-Bold-3f"/>
      <use xlink:href="#DejaVuSans-Bold-3f" transform="translate(58.007812 0)"/>
     </g>
    </g>
    <g id="patch_5">
     <path d="M 399.744 184.4496 
L 494.496 184.4496 
L 494.496 144.5328 
L 399.744 144.5328 
z
" style="fill: #1e293b; stroke: #0f172a; stroke-width: 1.2; stroke-linejoin: miter"/>
    </g>
    <g id="text_4">
     <!-- Gold -->
     <g style="fill: #ffffff" transform="translate(433.261406 167.471325) scale(0.108 -0.108)">
      <defs>
       <path id="DejaVuSans-Bold-47" d="M 4781 347 
Q 4331 128 3847 18 
Q 3363 -91 2847 -91 
Q 1681 -91 1000 561 
Q 319 1213 319 2328 
Q 319 3456 1012 4103 
Q 1706 4750 2913 4750 
Q 3378 4750 3804 4662 
Q 4231 4575 4609 4403 
L 4609 3438 
Q 4219 3659 3833 3768 
Q 3447 3878 3059 3878 
Q 2341 3878 1952 3476 
Q 1563 3075 1563 2328 
Q 1563 1588 1938 1184 
Q 2313 781 3003 781 
Q 3191 781 3352 804 
Q 3513 828 3641 878 
L 3641 1784 
L 2906 1784 
L 2906 2591 
L 4781 2591 
L 4781 347 
z
" transform="scale(0.015625)"/>
       <path id="DejaVuSans-Bold-6f" d="M 2203 2784 
Q 1831 2784 1636 2517 
Q 1441 2250 1441 1747 
Q 1441 1244 1636 976 
Q 1831 709 2203 709 
Q 2569 709 2762 976 
Q 2956 1244 2956 1747 
Q 2956 2250 2762 2517 
Q 2569 2784 2203 2784 
z
M 2203 3584 
Q 3106 3584 3614 3096 
Q 4122 2609 4122 1747 
Q 4122 884 3614 396 
Q 3106 -91 2203 -91 
Q 1297 -91 786 396 
Q 275 884 275 1747 
Q 275 2609 786 3096 
Q 1297 3584 2203 3584 
z
" transform="scale(0.015625)"/>
       <path id="DejaVuSans-Bold-6c" d="M 538 4863 
L 1656 4863 
L 1656 0 
L 538 0 
L 538 4863 
z
" transform="scale(0.015625)"/>
       <path id="DejaVuSans-Bold-64" d="M 2919 2988 
L 2919 4863 
L 4044 4863 
L 4044 0 
L 2919 0 
L 2919 506 
Q 2688 197 2409 53 
Q 2131 -91 1766 -91 
Q 1119 -91 703 423 
Q 288 938 288 1747 
Q 288 2556 703 3070 
Q 1119 3584 1766 3584 
Q 2128 3584 2408 3439 
Q 2688 3294 2919 2988 
z
M 2181 722 
Q 2541 722 2730 984 
Q 2919 1247 2919 1747 
Q 2919 2247 2730 2509 
Q 2541 2772 2181 2772 
Q 1825 2772 1636 2509 
Q 1447 2247 1447 1747 
Q 1447 1247 1636 984 
Q 1825 722 2181 722 
z
" transform="scale(0.015625)"/>
      </defs>
      <use xlink:href="#DejaVuSans-Bold-47"/>
      <use xlink:href="#DejaVuSans-Bold-6f" transform="translate(82.080078 0)"/>
      <use xlink:href="#DejaVuSans-Bold-6c" transform="translate(150.78125 0)"/>
      <use xlink:href="#DejaVuSans-Bold-64" transform="translate(185.058594 0)"/>
     </g>
    </g>
    <g id="patch_6">
     <path d="M 494.496 184.4496 
L 589.248 184.4496 
L 589.248 144.5328 
L 494.496 144.5328 
z
" style="fill: #1e293b; stroke: #0f172a; stroke-width: 1.2; stroke-linejoin: miter"/>
    </g>
    <g id="text_5">
     <!-- Pred -->
     <g style="fill: #ffffff" transform="translate(527.723156 167.471325) scale(0.108 -0.108)">
      <defs>
       <path id="DejaVuSans-Bold-50" d="M 588 4666 
L 2584 4666 
Q 3475 4666 3951 4270 
Q 4428 3875 4428 3144 
Q 4428 2409 3951 2014 
Q 3475 1619 2584 1619 
L 1791 1619 
L 1791 0 
L 588 0 
L 588 4666 
z
M 1791 3794 
L 1791 2491 
L 2456 2491 
Q 2806 2491 2997 2661 
Q 3188 2831 3188 3144 
Q 3188 3456 2997 3625 
Q 2806 3794 2456 3794 
L 1791 3794 
z
" transform="scale(0.015625)"/>
       <path id="DejaVuSans-Bold-72" d="M 3138 2547 
Q 2991 2616 2845 2648 
Q 2700 2681 2553 2681 
Q 2122 2681 1889 2404 
Q 1656 2128 1656 1613 
L 1656 0 
L 538 0 
L 538 3500 
L 1656 3500 
L 1656 2925 
Q 1872 3269 2151 3426 
Q 2431 3584 2822 3584 
Q 2878 3584 2943 3579 
Q 3009 3575 3134 3559 
L 3138 2547 
z
" transform="scale(0.015625)"/>
       <path id="DejaVuSans-Bold-65" d="M 4031 1759 
L 4031 1441 
L 1416 1441 
Q 1456 1047 1700 850 
Q 1944 653 2381 653 
Q 2734 653 3104 758 
Q 3475 863 3866 1075 
L 3866 213 
Q 3469 63 3072 -14 
Q 2675 -91 2278 -91 
Q 1328 -91 801 392 
Q 275 875 275 1747 
Q 275 2603 792 3093 
Q 1309 3584 2216 3584 
Q 3041 3584 3536 3087 
Q 4031 2591 4031 1759 
z
M 2881 2131 
Q 2881 2450 2695 2645 
Q 2509 2841 2209 2841 
Q 1884 2841 1681 2658 
Q 1478 2475 1428 2131 
L 2881 2131 
z
" transform="scale(0.015625)"/>
      </defs>
      <use xlink:href="#DejaVuSans-Bold-50"/>
      <use xlink:href="#DejaVuSans-Bold-72" transform="translate(73.291016 0)"/>
      <use xlink:href="#DejaVuSans-Bold-65" transform="translate(122.607422 0)"/>
      <use xlink:href="#DejaVuSans-Bold-64" transform="translate(190.429688 0)"/>
     </g>
    </g>
    <g id="patch_7">
     <path d="M 589.248 184.4496 
L 670.464 184.4496 
L 670.464 144.5328 
L 589.248 144.5328 
z
" style="fill: #1e293b; stroke: #0f172a; stroke-width: 1.2; stroke-linejoin: miter"/>
    </g>
    <g id="text_6">
     <!-- TP -->
     <g style="fill: #ffffff" transform="translate(622.214156 167.471325) scale(0.108 -0.108)">
      <defs>
       <path id="DejaVuSans-Bold-54" d="M 31 4666 
L 4331 4666 
L 4331 3756 
L 2784 3756 
L 2784 0 
L 1581 0 
L 1581 3756 
L 31 3756 
L 31 4666 
z
" transform="scale(0.015625)"/>
      </defs>
      <use xlink:href="#DejaVuSans-Bold-54"/>
      <use xlink:href="#DejaVuSans-Bold-50" transform="translate(68.212891 0)"/>
     </g>
    </g>
    <g id="patch_8">
     <path d="M 670.464 184.4496 
L 751.68 184.4496 
L 751.68 144.5328 
L 670.464 144.5328 
z
" style="fill: #1e293b; stroke: #0f172a; stroke-width: 1.2; stroke-linejoin: miter"/>
    </g>
    <g id="text_7">
     <!-- FP -->
     <g style="fill: #ffffff" transform="translate(703.425094 167.471325) scale(0.108 -0.108)">
      <defs>
       <path id="DejaVuSans-Bold-46" d="M 588 4666 
L 3834 4666 
L 3834 3756 
L 1791 3756 
L 1791 2888 
L 3713 2888 
L 3713 1978 
L 1791 1978 
L 1791 0 
L 588 0 
L 588 4666 
z
" transform="scale(0.015625)"/>
      </defs>
      <use xlink:href="#DejaVuSans-Bold-46"/>
      <use xlink:href="#DejaVuSans-Bold-50" transform="translate(68.310547 0)"/>
     </g>
    </g>
    <g id="patch_9">
     <path d="M 751.68 184.4496 
L 846.432 184.4496 
L 846.432 144.5328 
L 751.68 144.5328 
z
" style="fill: #1e293b; stroke: #0f172a; stroke-width: 1.2; stroke-linejoin: miter"/>
    </g>
    <g id="text_8">
     <!-- FN -->
     <g style="fill: #ffffff" transform="translate(790.848 167.471325) scale(0.108 -0.108)">
      <defs>
       <path id="DejaVuSans-Bold-4e" d="M 588 4666 
L 1931 4666 
L 3628 1466 
L 3628 4666 
L 4769 4666 
L 4769 0 
L 3425 0 
L 1728 3200 
L 1728 0 
L 588 0 
L 588 4666 
z
" transform="scale(0.015625)"/>
      </defs>
      <use xlink:href="#DejaVuSans-Bold-46"/>
      <use xlink:href="#DejaVuSans-Bold-4e" transform="translate(68.310547 0)"/>
     </g>
    </g>
    <g id="patch_10">
     <path d="M 846.432 184.4496 
L 1022.4 184.4496 
L 1022.4 144.5328 
L 846.432 144.5328 
z
" style="fill: #1e293b; stroke: #0f172a; stroke-width: 1.2; stroke-linejoin: miter"/>
    </g>
    <g id="text_9">
     <!-- Precision -->
     <g style="fill: #ffffff" transform="translate(906.460875 167.471325) scale(0.108 -0.108)">
      <defs>
       <path id="DejaVuSans-Bold-63" d="M 3366 3391 
L 3366 2478 
Q 3138 2634 2908 2709 
Q 2678 2784 2431 2784 
Q 1963 2784 1702 2511 
Q 1441 2238 1441 1747 
Q 1441 1256 1702 982 
Q 1963 709 2431 709 
Q 2694 709 2930 787 
Q 3166 866 3366 1019 
L 3366 103 
Q 3103 6 2833 -42 
Q 2563 -91 2291 -91 
Q 1344 -91 809 395 
Q 275 881 275 1747 
Q 275 2613 809 3098 
Q 1344 3584 2291 3584 
Q 2566 3584 2833 3536 
Q 3100 3488 3366 3391 
z
" transform="scale(0.015625)"/>
       <path id="DejaVuSans-Bold-69" d="M 538 3500 
L 1656 3500 
L 1656 0 
L 538 0 
L 538 3500 
z
M 538 4863 
L 1656 4863 
L 1656 3950 
L 538 3950 
L 538 4863 
z
" transform="scale(0.015625)"/>
       <path id="DejaVuSans-Bold-73" d="M 3272 3391 
L 3272 2541 
Q 2913 2691 2578 2766 
Q 2244 2841 1947 2841 
Q 1628 2841 1473 2761 
Q 1319 2681 1319 2516 
Q 1319 2381 1436 2309 
Q 1553 2238 1856 2203 
L 2053 2175 
Q 2913 2066 3209 1816 
Q 3506 1566 3506 1031 
Q 3506 472 3093 190 
Q 2681 -91 1863 -91 
Q 1516 -91 1145 -36 
Q 775 19 384 128 
L 384 978 
Q 719 816 1070 734 
Q 1422 653 1784 653 
Q 2113 653 2278 743 
Q 2444 834 2444 1013 
Q 2444 1163 2330 1236 
Q 2216 1309 1875 1350 
L 1678 1375 
Q 931 1469 631 1722 
Q 331 1975 331 2491 
Q 331 3047 712 3315 
Q 1094 3584 1881 3584 
Q 2191 3584 2531 3537 
Q 2872 3491 3272 3391 
z
" transform="scale(0.015625)"/>
       <path id="DejaVuSans-Bold-6e" d="M 4056 2131 
L 4056 0 
L 2931 0 
L 2931 347 
L 2931 1631 
Q 2931 2084 2911 2256 
Q 2891 2428 2841 2509 
Q 2775 2619 2662 2680 
Q 2550 2741 2406 2741 
Q 2056 2741 1856 2470 
Q 1656 2200 1656 1722 
L 1656 0 
L 538 0 
L 538 3500 
L 1656 3500 
L 1656 2988 
Q 1909 3294 2193 3439 
Q 2478 3584 2822 3584 
Q 3428 3584 3742 3212 
Q 4056 2841 4056 2131 
z
" transform="scale(0.015625)"/>
      </defs>
      <use xlink:href="#DejaVuSans-Bold-50"/>
      <use xlink:href="#DejaVuSans-Bold-72" transform="translate(73.291016 0)"/>
      <use xlink:href="#DejaVuSans-Bold-65" transform="translate(122.607422 0)"/>
      <use xlink:href="#DejaVuSans-Bold-63" transform="translate(190.429688 0)"/>
      <use xlink:href="#DejaVuSans-Bold-69" transform="translate(249.707031 0)"/>
      <use xlink:href="#DejaVuSans-Bold-73" transform="translate(283.984375 0)"/>
      <use xlink:href="#DejaVuSans-Bold-69" transform="translate(343.505859 0)"/>
      <use xlink:href="#DejaVuSans-Bold-6f" transform="translate(377.783203 0)"/>
      <use xlink:href="#DejaVuSans-Bold-6e" transform="translate(446.484375 0)"/>
     </g>
    </g>
    <g id="patch_11">
     <path d="M 1022.4 184.4496 
L 1171.296 184.4496 
L 1171.296 144.5328 
L 1022.4 144.5328 
z
" style="fill: #1e293b; stroke: #0f172a; stroke-width: 1.2; stroke-linejoin: miter"/>
    </g>
    <g id="text_10">
     <!-- Recall -->
     <g style="fill: #ffffff" transform="translate(1078.479562 167.471325) scale(0.108 -0.108)">
      <defs>
       <path id="DejaVuSans-Bold-52" d="M 2297 2597 
Q 2675 2597 2839 2737 
Q 3003 2878 3003 3200 
Q 3003 3519 2839 3656 
Q 2675 3794 2297 3794 
L 1791 3794 
L 1791 2597 
L 2297 2597 
z
M 1791 1766 
L 1791 0 
L 588 0 
L 588 4666 
L 2425 4666 
Q 3347 4666 3776 4356 
Q 4206 4047 4206 3378 
Q 4206 2916 3982 2619 
Q 3759 2322 3309 2181 
Q 3556 2125 3751 1926 
Q 3947 1728 4147 1325 
L 4800 0 
L 3519 0 
L 2950 1159 
Q 2778 1509 2601 1637 
Q 2425 1766 2131 1766 
L 1791 1766 
z
" transform="scale(0.015625)"/>
       <path id="DejaVuSans-Bold-61" d="M 2106 1575 
Q 1756 1575 1579 1456 
Q 1403 1338 1403 1106 
Q 1403 894 1545 773 
Q 1688 653 1941 653 
Q 2256 653 2472 879 
Q 2688 1106 2688 1447 
L 2688 1575 
L 2106 1575 
z
M 3816 1997 
L 3816 0 
L 2688 0 
L 2688 519 
Q 2463 200 2181 54 
Q 1900 -91 1497 -91 
Q 953 -91 614 226 
Q 275 544 275 1050 
Q 275 1666 698 1953 
Q 1122 2241 2028 2241 
L 2688 2241 
L 2688 2328 
Q 2688 2594 2478 2717 
Q 2269 2841 1825 2841 
Q 1466 2841 1156 2769 
Q 847 2697 581 2553 
L 581 3406 
Q 941 3494 1303 3539 
Q 1666 3584 2028 3584 
Q 2975 3584 3395 3211 
Q 3816 2838 3816 1997 
z
" transform="scale(0.015625)"/>
      </defs>
      <use xlink:href="#DejaVuSans-Bold-52"/>
      <use xlink:href="#DejaVuSans-Bold-65" transform="translate(77.001953 0)"/>
      <use xlink:href="#DejaVuSans-Bold-63" transform="translate(144.824219 0)"/>
      <use xlink:href="#DejaVuSans-Bold-61" transform="translate(204.101562 0)"/>
      <use xlink:href="#DejaVuSans-Bold-6c" transform="translate(271.582031 0)"/>
      <use xlink:href="#DejaVuSans-Bold-6c" transform="translate(305.859375 0)"/>
     </g>
    </g>
    <g id="patch_12">
     <path d="M 1171.296 184.4496 
L 1293.12 184.4496 
L 1293.12 144.5328 
L 1171.296 144.5328 
z
" style="fill: #1e293b; stroke: #0f172a; stroke-width: 1.2; stroke-linejoin: miter"/>
    </g>
    <g id="text_11">
     <!-- F1 -->
     <g style="fill: #ffffff" transform="translate(1224.761906 167.471325) scale(0.108 -0.108)">
      <defs>
       <path id="DejaVuSans-Bold-31" d="M 750 831 
L 1813 831 
L 1813 3847 
L 722 3622 
L 722 4441 
L 1806 4666 
L 2950 4666 
L 2950 831 
L 4013 831 
L 4013 0 
L 750 0 
L 750 831 
z
" transform="scale(0.015625)"/>
      </defs>
      <use xlink:href="#DejaVuSans-Bold-46"/>
      <use xlink:href="#DejaVuSans-Bold-31" transform="translate(68.310547 0)"/>
     </g>
    </g>
    <g id="patch_13">
     <path d="M 74.88 230.0688 
L 142.56 230.0688 
L 142.56 184.4496 
L 74.88 184.4496 
z
" style="fill: #ffffff; stroke: #cbd5e1; stroke-width: 0.8; stroke-linejoin: miter"/>
    </g>
    <g id="text_12">
     <!-- E1 -->
     <g style="fill: #0f172a" transform="translate(101.273906 210.239325) scale(0.108 -0.108)">
      <defs>
       <path id="DejaVuSans-Bold-45" d="M 588 4666 
L 3834 4666 
L 3834 3756 
L 1791 3756 
L 1791 2888 
L 3713 2888 
L 3713 1978 
L 1791 1978 
L 1791 909 
L 3903 909 
L 3903 0 
L 588 0 
L 588 4666 
z
" transform="scale(0.015625)"/>
      </defs>
      <use xlink:href="#DejaVuSans-Bold-45"/>
      <use xlink:href="#DejaVuSans-Bold-31" transform="translate(68.310547 0)"/>
     </g>
    </g>
    <g id="patch_14">
     <path d="M 142.56 230.0688 
L 291.456 230.0688 
L 291.456 184.4496 
L 142.56 184.4496 
z
" style="fill: #ffffff; stroke: #cbd5e1; stroke-width: 0.8; stroke-linejoin: miter"/>
    </g>
    <g id="text_13">
     <!-- baseline -->
     <g style="fill: #0f172a" transform="translate(191.412844 210.239325) scale(0.108 -0.108)">
      <defs>
       <path id="DejaVuSans-Bold-62" d="M 2400 722 
Q 2759 722 2948 984 
Q 3138 1247 3138 1747 
Q 3138 2247 2948 2509 
Q 2759 2772 2400 2772 
Q 2041 2772 1848 2508 
Q 1656 2244 1656 1747 
Q 1656 1250 1848 986 
Q 2041 722 2400 722 
z
M 1656 2988 
Q 1888 3294 2169 3439 
Q 2450 3584 2816 3584 
Q 3463 3584 3878 3070 
Q 4294 2556 4294 1747 
Q 4294 938 3878 423 
Q 3463 -91 2816 -91 
Q 2450 -91 2169 54 
Q 1888 200 1656 506 
L 1656 0 
L 538 0 
L 538 4863 
L 1656 4863 
L 1656 2988 
z
" transform="scale(0.015625)"/>
      </defs>
      <use xlink:href="#DejaVuSans-Bold-62"/>
      <use xlink:href="#DejaVuSans-Bold-61" transform="translate(71.582031 0)"/>
      <use xlink:href="#DejaVuSans-Bold-73" transform="translate(139.0625 0)"/>
      <use xlink:href="#DejaVuSans-Bold-65" transform="translate(198.583984 0)"/>
      <use xlink:href="#DejaVuSans-Bold-6c" transform="translate(266.40625 0)"/>
      <use xlink:href="#DejaVuSans-Bold-69" transform="translate(300.683594 0)"/>
      <use xlink:href="#DejaVuSans-Bold-6e" transform="translate(334.960938 0)"/>
      <use xlink:href="#DejaVuSans-Bold-65" transform="translate(406.152344 0)"/>
     </g>
    </g>
    <g id="patch_15">
     <path d="M 291.456 230.0688 
L 399.744 230.0688 
L 399.744 184.4496 
L 291.456 184.4496 
z
" style="fill: #ffffff; stroke: #cbd5e1; stroke-width: 0.8; stroke-linejoin: miter"/>
    </g>
    <g id="text_14">
     <!-- 0-5 -->
     <g transform="translate(336.780281 210.239325) scale(0.108 -0.108)">
      <defs>
       <path id="DejaVuSans-30" d="M 2034 4250 
Q 1547 4250 1301 3770 
Q 1056 3291 1056 2328 
Q 1056 1369 1301 889 
Q 1547 409 2034 409 
Q 2525 409 2770 889 
Q 3016 1369 3016 2328 
Q 3016 3291 2770 3770 
Q 2525 4250 2034 4250 
z
M 2034 4750 
Q 2819 4750 3233 4129 
Q 3647 3509 3647 2328 
Q 3647 1150 3233 529 
Q 2819 -91 2034 -91 
Q 1250 -91 836 529 
Q 422 1150 422 2328 
Q 422 3509 836 4129 
Q 1250 4750 2034 4750 
z
" transform="scale(0.015625)"/>
       <path id="DejaVuSans-2d" d="M 313 2009 
L 1997 2009 
L 1997 1497 
L 313 1497 
L 313 2009 
z
" transform="scale(0.015625)"/>
       <path id="DejaVuSans-35" d="M 691 4666 
L 3169 4666 
L 3169 4134 
L 1269 4134 
L 1269 2991 
Q 1406 3038 1543 3061 
Q 1681 3084 1819 3084 
Q 2600 3084 3056 2656 
Q 3513 2228 3513 1497 
Q 3513 744 3044 326 
Q 2575 -91 1722 -91 
Q 1428 -91 1123 -41 
Q 819 9 494 109 
L 494 744 
Q 775 591 1075 516 
Q 1375 441 1709 441 
Q 2250 441 2565 725 
Q 2881 1009 2881 1497 
Q 2881 1984 2565 2268 
Q 2250 2553 1709 2553 
Q 1456 2553 1204 2497 
Q 953 2441 691 2322 
L 691 4666 
z
" transform="scale(0.015625)"/>
      </defs>
      <use xlink:href="#DejaVuSans-30"/>
      <use xlink:href="#DejaVuSans-2d" transform="translate(63.623047 0)"/>
      <use xlink:href="#DejaVuSans-35" transform="translate(99.707031 0)"/>
     </g>
    </g>
    <g id="patch_16">
     <path d="M 399.744 230.0688 
L 494.496 230.0688 
L 494.496 184.4496 
L 399.744 184.4496 
z
" style="fill: #ffffff; stroke: #cbd5e1; stroke-width: 0.8; stroke-linejoin: miter"/>
    </g>
    <g id="text_15">
     <!-- 62 -->
     <g transform="translate(440.2485 210.239325) scale(0.108 -0.108)">
      <defs>
       <path id="DejaVuSans-36" d="M 2113 2584 
Q 1688 2584 1439 2293 
Q 1191 2003 1191 1497 
Q 1191 994 1439 701 
Q 1688 409 2113 409 
Q 2538 409 2786 701 
Q 3034 994 3034 1497 
Q 3034 2003 2786 2293 
Q 2538 2584 2113 2584 
z
M 3366 4563 
L 3366 3988 
Q 3128 4100 2886 4159 
Q 2644 4219 2406 4219 
Q 1781 4219 1451 3797 
Q 1122 3375 1075 2522 
Q 1259 2794 1537 2939 
Q 1816 3084 2150 3084 
Q 2853 3084 3261 2657 
Q 3669 2231 3669 1497 
Q 3669 778 3244 343 
Q 2819 -91 2113 -91 
Q 1303 -91 875 529 
Q 447 1150 447 2328 
Q 447 3434 972 4092 
Q 1497 4750 2381 4750 
Q 2619 4750 2861 4703 
Q 3103 4656 3366 4563 
z
" transform="scale(0.015625)"/>
       <path id="DejaVuSans-32" d="M 1228 531 
L 3431 531 
L 3431 0 
L 469 0 
L 469 531 
Q 828 903 1448 1529 
Q 2069 2156 2228 2338 
Q 2531 2678 2651 2914 
Q 2772 3150 2772 3378 
Q 2772 3750 2511 3984 
Q 2250 4219 1831 4219 
Q 1534 4219 1204 4116 
Q 875 4013 500 3803 
L 500 4441 
Q 881 4594 1212 4672 
Q 1544 4750 1819 4750 
Q 2544 4750 2975 4387 
Q 3406 4025 3406 3419 
Q 3406 3131 3298 2873 
Q 3191 2616 2906 2266 
Q 2828 2175 2409 1742 
Q 1991 1309 1228 531 
z
" transform="scale(0.015625)"/>
      </defs>
      <use xlink:href="#DejaVuSans-36"/>
      <use xlink:href="#DejaVuSans-32" transform="translate(63.623047 0)"/>
     </g>
    </g>
    <g id="patch_17">
     <path d="M 494.496 230.0688 
L 589.248 230.0688 
L 589.248 184.4496 
L 494.496 184.4496 
z
" style="fill: #ffffff; stroke: #cbd5e1; stroke-width: 0.8; stroke-linejoin: miter"/>
    </g>
    <g id="text_16">
     <!-- 3 -->
     <g transform="translate(538.43625 210.239325) scale(0.108 -0.108)">
      <defs>
       <path id="DejaVuSans-33" d="M 2597 2516 
Q 3050 2419 3304 2112 
Q 3559 1806 3559 1356 
Q 3559 666 3084 287 
Q 2609 -91 1734 -91 
Q 1441 -91 1130 -33 
Q 819 25 488 141 
L 488 750 
Q 750 597 1062 519 
Q 1375 441 1716 441 
Q 2309 441 2620 675 
Q 2931 909 2931 1356 
Q 2931 1769 2642 2001 
Q 2353 2234 1838 2234 
L 1294 2234 
L 1294 2753 
L 1863 2753 
Q 2328 2753 2575 2939 
Q 2822 3125 2822 3475 
Q 2822 3834 2567 4026 
Q 2313 4219 1838 4219 
Q 1578 4219 1281 4162 
Q 984 4106 628 3988 
L 628 4550 
Q 988 4650 1302 4700 
Q 1616 4750 1894 4750 
Q 2613 4750 3031 4423 
Q 3450 4097 3450 3541 
Q 3450 3153 3228 2886 
Q 3006 2619 2597 2516 
z
" transform="scale(0.015625)"/>
      </defs>
      <use xlink:href="#DejaVuSans-33"/>
     </g>
    </g>
    <g id="patch_18">
     <path d="M 589.248 230.0688 
L 670.464 230.0688 
L 670.464 184.4496 
L 589.248 184.4496 
z
" style="fill: #ffffff; stroke: #cbd5e1; stroke-width: 0.8; stroke-linejoin: miter"/>
    </g>
    <g id="text_17">
     <!-- 3 -->
     <g transform="translate(626.42025 210.239325) scale(0.108 -0.108)">
      <use xlink:href="#DejaVuSans-33"/>
     </g>
    </g>
    <g id="patch_19">
     <path d="M 670.464 230.0688 
L 751.68 230.0688 
L 751.68 184.4496 
L 670.464 184.4496 
z
" style="fill: #ffffff; stroke: #cbd5e1; stroke-width: 0.8; stroke-linejoin: miter"/>
    </g>
    <g id="text_18">
     <!-- 0 -->
     <g transform="translate(707.63625 210.239325) scale(0.108 -0.108)">
      <use xlink:href="#DejaVuSans-30"/>
     </g>
    </g>
    <g id="patch_20">
     <path d="M 751.68 230.0688 
L 846.432 230.0688 
L 846.432 184.4496 
L 751.68 184.4496 
z
" style="fill: #ffffff; stroke: #cbd5e1; stroke-width: 0.8; stroke-linejoin: miter"/>
    </g>
    <g id="text_19">
     <!-- 59 -->
     <g transform="translate(792.1845 210.239325) scale(0.108 -0.108)">
      <defs>
       <path id="DejaVuSans-39" d="M 703 97 
L 703 672 
Q 941 559 1184 500 
Q 1428 441 1663 441 
Q 2288 441 2617 861 
Q 2947 1281 2994 2138 
Q 2813 1869 2534 1725 
Q 2256 1581 1919 1581 
Q 1219 1581 811 2004 
Q 403 2428 403 3163 
Q 403 3881 828 4315 
Q 1253 4750 1959 4750 
Q 2769 4750 3195 4129 
Q 3622 3509 3622 2328 
Q 3622 1225 3098 567 
Q 2575 -91 1691 -91 
Q 1453 -91 1209 -44 
Q 966 3 703 97 
z
M 1959 2075 
Q 2384 2075 2632 2365 
Q 2881 2656 2881 3163 
Q 2881 3666 2632 3958 
Q 2384 4250 1959 4250 
Q 1534 4250 1286 3958 
Q 1038 3666 1038 3163 
Q 1038 2656 1286 2365 
Q 1534 2075 1959 2075 
z
" transform="scale(0.015625)"/>
      </defs>
      <use xlink:href="#DejaVuSans-35"/>
      <use xlink:href="#DejaVuSans-39" transform="translate(63.623047 0)"/>
     </g>
    </g>
    <g id="patch_21">
     <path d="M 846.432 230.0688 
L 1022.4 230.0688 
L 1022.4 184.4496 
L 846.432 184.4496 
z
" style="fill: #ffffff; stroke: #cbd5e1; stroke-width: 0.8; stroke-linejoin: miter"/>
    </g>
    <g id="text_20">
     <!-- 1.000000 -->
     <g transform="translate(908.649562 210.239325) scale(0.108 -0.108)">
      <defs>
       <path id="DejaVuSans-31" d="M 794 531 
L 1825 531 
L 1825 4091 
L 703 3866 
L 703 4441 
L 1819 4666 
L 2450 4666 
L 2450 531 
L 3481 531 
L 3481 0 
L 794 0 
L 794 531 
z
" transform="scale(0.015625)"/>
       <path id="DejaVuSans-2e" d="M 684 794 
L 1344 794 
L 1344 0 
L 684 0 
L 684 794 
z
" transform="scale(0.015625)"/>
      </defs>
      <use xlink:href="#DejaVuSans-31"/>
      <use xlink:href="#DejaVuSans-2e" transform="translate(63.623047 0)"/>
      <use xlink:href="#DejaVuSans-30" transform="translate(95.410156 0)"/>
      <use xlink:href="#DejaVuSans-30" transform="translate(159.033203 0)"/>
      <use xlink:href="#DejaVuSans-30" transform="translate(222.65625 0)"/>
      <use xlink:href="#DejaVuSans-30" transform="translate(286.279297 0)"/>
      <use xlink:href="#DejaVuSans-30" transform="translate(349.902344 0)"/>
      <use xlink:href="#DejaVuSans-30" transform="translate(413.525391 0)"/>
     </g>
    </g>
    <g id="patch_22">
     <path d="M 1022.4 230.0688 
L 1171.296 230.0688 
L 1171.296 184.4496 
L 1022.4 184.4496 
z
" style="fill: #ffffff; stroke: #cbd5e1; stroke-width: 0.8; stroke-linejoin: miter"/>
    </g>
    <g id="text_21">
     <!-- 0.048387 -->
     <g transform="translate(1071.081563 210.239325) scale(0.108 -0.108)">
      <defs>
       <path id="DejaVuSans-34" d="M 2419 4116 
L 825 1625 
L 2419 1625 
L 2419 4116 
z
M 2253 4666 
L 3047 4666 
L 3047 1625 
L 3713 1625 
L 3713 1100 
L 3047 1100 
L 3047 0 
L 2419 0 
L 2419 1100 
L 313 1100 
L 313 1709 
L 2253 4666 
z
" transform="scale(0.015625)"/>
       <path id="DejaVuSans-38" d="M 2034 2216 
Q 1584 2216 1326 1975 
Q 1069 1734 1069 1313 
Q 1069 891 1326 650 
Q 1584 409 2034 409 
Q 2484 409 2743 651 
Q 3003 894 3003 1313 
Q 3003 1734 2745 1975 
Q 2488 2216 2034 2216 
z
M 1403 2484 
Q 997 2584 770 2862 
Q 544 3141 544 3541 
Q 544 4100 942 4425 
Q 1341 4750 2034 4750 
Q 2731 4750 3128 4425 
Q 3525 4100 3525 3541 
Q 3525 3141 3298 2862 
Q 3072 2584 2669 2484 
Q 3125 2378 3379 2068 
Q 3634 1759 3634 1313 
Q 3634 634 3220 271 
Q 2806 -91 2034 -91 
Q 1263 -91 848 271 
Q 434 634 434 1313 
Q 434 1759 690 2068 
Q 947 2378 1403 2484 
z
M 1172 3481 
Q 1172 3119 1398 2916 
Q 1625 2713 2034 2713 
Q 2441 2713 2670 2916 
Q 2900 3119 2900 3481 
Q 2900 3844 2670 4047 
Q 2441 4250 2034 4250 
Q 1625 4250 1398 4047 
Q 1172 3844 1172 3481 
z
" transform="scale(0.015625)"/>
       <path id="DejaVuSans-37" d="M 525 4666 
L 3525 4666 
L 3525 4397 
L 1831 0 
L 1172 0 
L 2766 4134 
L 525 4134 
L 525 4666 
z
" transform="scale(0.015625)"/>
      </defs>
      <use xlink:href="#DejaVuSans-30"/>
      <use xlink:href="#DejaVuSans-2e" transform="translate(63.623047 0)"/>
      <use xlink:href="#DejaVuSans-30" transform="translate(95.410156 0)"/>
      <use xlink:href="#DejaVuSans-34" transform="translate(159.033203 0)"/>
      <use xlink:href="#DejaVuSans-38" transform="translate(222.65625 0)"/>
      <use xlink:href="#DejaVuSans-33" transform="translate(286.279297 0)"/>
      <use xlink:href="#DejaVuSans-38" transform="translate(349.902344 0)"/>
      <use xlink:href="#DejaVuSans-37" transform="translate(413.525391 0)"/>
     </g>
    </g>
    <g id="patch_23">
     <path d="M 1171.296 230.0688 
L 1293.12 230.0688 
L 1293.12 184.4496 
L 1171.296 184.4496 
z
" style="fill: #ffffff; stroke: #cbd5e1; stroke-width: 0.8; stroke-linejoin: miter"/>
    </g>
    <g id="text_22">
     <!-- 0.092308 -->
     <g transform="translate(1206.441563 210.239325) scale(0.108 -0.108)">
      <use xlink:href="#DejaVuSans-30"/>
      <use xlink:href="#DejaVuSans-2e" transform="translate(63.623047 0)"/>
      <use xlink:href="#DejaVuSans-30" transform="translate(95.410156 0)"/>
      <use xlink:href="#DejaVuSans-39" transform="translate(159.033203 0)"/>
      <use xlink:href="#DejaVuSans-32" transform="translate(222.65625 0)"/>
      <use xlink:href="#DejaVuSans-33" transform="translate(286.279297 0)"/>
      <use xlink:href="#DejaVuSans-30" transform="translate(349.902344 0)"/>
      <use xlink:href="#DejaVuSans-38" transform="translate(413.525391 0)"/>
     </g>
    </g>
    <g id="patch_24">
     <path d="M 74.88 275.688 
L 142.56 275.688 
L 142.56 230.0688 
L 74.88 230.0688 
z
" style="fill: #f1f5f9; stroke: #cbd5e1; stroke-width: 0.8; stroke-linejoin: miter"/>
    </g>
    <g id="text_23">
     <!-- E2 -->
     <g style="fill: #0f172a" transform="translate(101.273906 255.858525) scale(0.108 -0.108)">
      <defs>
       <path id="DejaVuSans-Bold-32" d="M 1844 884 
L 3897 884 
L 3897 0 
L 506 0 
L 506 884 
L 2209 2388 
Q 2438 2594 2547 2791 
Q 2656 2988 2656 3200 
Q 2656 3528 2436 3728 
Q 2216 3928 1850 3928 
Q 1569 3928 1234 3808 
Q 900 3688 519 3450 
L 519 4475 
Q 925 4609 1322 4679 
Q 1719 4750 2100 4750 
Q 2938 4750 3402 4381 
Q 3866 4013 3866 3353 
Q 3866 2972 3669 2642 
Q 3472 2313 2841 1759 
L 1844 884 
z
" transform="scale(0.015625)"/>
      </defs>
      <use xlink:href="#DejaVuSans-Bold-45"/>
      <use xlink:href="#DejaVuSans-Bold-32" transform="translate(68.310547 0)"/>
     </g>
    </g>
    <g id="patch_25">
     <path d="M 142.56 275.688 
L 291.456 275.688 
L 291.456 230.0688 
L 142.56 230.0688 
z
" style="fill: #f1f5f9; stroke: #cbd5e1; stroke-width: 0.8; stroke-linejoin: miter"/>
    </g>
    <g id="text_24">
     <!-- rerank -->
     <g style="fill: #0f172a" transform="translate(196.94025 255.858525) scale(0.108 -0.108)">
      <defs>
       <path id="DejaVuSans-Bold-6b" d="M 538 4863 
L 1656 4863 
L 1656 2216 
L 2944 3500 
L 4244 3500 
L 2534 1894 
L 4378 0 
L 3022 0 
L 1656 1459 
L 1656 0 
L 538 0 
L 538 4863 
z
" transform="scale(0.015625)"/>
      </defs>
      <use xlink:href="#DejaVuSans-Bold-72"/>
      <use xlink:href="#DejaVuSans-Bold-65" transform="translate(49.316406 0)"/>
      <use xlink:href="#DejaVuSans-Bold-72" transform="translate(117.138672 0)"/>
      <use xlink:href="#DejaVuSans-Bold-61" transform="translate(166.455078 0)"/>
      <use xlink:href="#DejaVuSans-Bold-6e" transform="translate(233.935547 0)"/>
      <use xlink:href="#DejaVuSans-Bold-6b" transform="translate(305.126953 0)"/>
     </g>
    </g>
    <g id="patch_26">
     <path d="M 291.456 275.688 
L 399.744 275.688 
L 399.744 230.0688 
L 291.456 230.0688 
z
" style="fill: #f1f5f9; stroke: #cbd5e1; stroke-width: 0.8; stroke-linejoin: miter"/>
    </g>
    <g id="text_25">
     <!-- 0-5 -->
     <g transform="translate(336.780281 255.858525) scale(0.108 -0.108)">
      <use xlink:href="#DejaVuSans-30"/>
      <use xlink:href="#DejaVuSans-2d" transform="translate(63.623047 0)"/>
      <use xlink:href="#DejaVuSans-35" transform="translate(99.707031 0)"/>
     </g>
    </g>
    <g id="patch_27">
     <path d="M 399.744 275.688 
L 494.496 275.688 
L 494.496 230.0688 
L 399.744 230.0688 
z
" style="fill: #f1f5f9; stroke: #cbd5e1; stroke-width: 0.8; stroke-linejoin: miter"/>
    </g>
    <g id="text_26">
     <!-- 62 -->
     <g transform="translate(440.2485 255.858525) scale(0.108 -0.108)">
      <use xlink:href="#DejaVuSans-36"/>
      <use xlink:href="#DejaVuSans-32" transform="translate(63.623047 0)"/>
     </g>
    </g>
    <g id="patch_28">
     <path d="M 494.496 275.688 
L 589.248 275.688 
L 589.248 230.0688 
L 494.496 230.0688 
z
" style="fill: #f1f5f9; stroke: #cbd5e1; stroke-width: 0.8; stroke-linejoin: miter"/>
    </g>
    <g id="text_27">
     <!-- 4 -->
     <g transform="translate(538.43625 255.858525) scale(0.108 -0.108)">
      <use xlink:href="#DejaVuSans-34"/>
     </g>
    </g>
    <g id="patch_29">
     <path d="M 589.248 275.688 
L 670.464 275.688 
L 670.464 230.0688 
L 589.248 230.0688 
z
" style="fill: #f1f5f9; stroke: #cbd5e1; stroke-width: 0.8; stroke-linejoin: miter"/>
    </g>
    <g id="text_28">
     <!-- 4 -->
     <g transform="translate(626.42025 255.858525) scale(0.108 -0.108)">
      <use xlink:href="#DejaVuSans-34"/>
     </g>
    </g>
    <g id="patch_30">
     <path d="M 670.464 275.688 
L 751.68 275.688 
L 751.68 230.0688 
L 670.464 230.0688 
z
" style="fill: #f1f5f9; stroke: #cbd5e1; stroke-width: 0.8; stroke-linejoin: miter"/>
    </g>
    <g id="text_29">
     <!-- 0 -->
     <g transform="translate(707.63625 255.858525) scale(0.108 -0.108)">
      <use xlink:href="#DejaVuSans-30"/>
     </g>
    </g>
    <g id="patch_31">
     <path d="M 751.68 275.688 
L 846.432 275.688 
L 846.432 230.0688 
L 751.68 230.0688 
z
" style="fill: #f1f5f9; stroke: #cbd5e1; stroke-width: 0.8; stroke-linejoin: miter"/>
    </g>
    <g id="text_30">
     <!-- 58 -->
     <g transform="translate(792.1845 255.858525) scale(0.108 -0.108)">
      <use xlink:href="#DejaVuSans-35"/>
      <use xlink:href="#DejaVuSans-38" transform="translate(63.623047 0)"/>
     </g>
    </g>
    <g id="patch_32">
     <path d="M 846.432 275.688 
L 1022.4 275.688 
L 1022.4 230.0688 
L 846.432 230.0688 
z
" style="fill: #f1f5f9; stroke: #cbd5e1; stroke-width: 0.8; stroke-linejoin: miter"/>
    </g>
    <g id="text_31">
     <!-- 1.000000 -->
     <g transform="translate(908.649562 255.858525) scale(0.108 -0.108)">
      <use xlink:href="#DejaVuSans-31"/>
      <use xlink:href="#DejaVuSans-2e" transform="translate(63.623047 0)"/>
      <use xlink:href="#DejaVuSans-30" transform="translate(95.410156 0)"/>
      <use xlink:href="#DejaVuSans-30" transform="translate(159.033203 0)"/>
      <use xlink:href="#DejaVuSans-30" transform="translate(222.65625 0)"/>
      <use xlink:href="#DejaVuSans-30" transform="translate(286.279297 0)"/>
      <use xlink:href="#DejaVuSans-30" transform="translate(349.902344 0)"/>
      <use xlink:href="#DejaVuSans-30" transform="translate(413.525391 0)"/>
     </g>
    </g>
    <g id="patch_33">
     <path d="M 1022.4 275.688 
L 1171.296 275.688 
L 1171.296 230.0688 
L 1022.4 230.0688 
z
" style="fill: #ecfdf5; stroke: #cbd5e1; stroke-width: 0.8; stroke-linejoin: miter"/>
    </g>
    <g id="text_32">
     <!-- 0.064516 -->
     <g style="fill: #166534" transform="translate(1068.496312 255.858525) scale(0.108 -0.108)">
      <defs>
       <path id="DejaVuSans-Bold-30" d="M 2944 2338 
Q 2944 3213 2780 3570 
Q 2616 3928 2228 3928 
Q 1841 3928 1675 3570 
Q 1509 3213 1509 2338 
Q 1509 1453 1675 1090 
Q 1841 728 2228 728 
Q 2613 728 2778 1090 
Q 2944 1453 2944 2338 
z
M 4147 2328 
Q 4147 1169 3647 539 
Q 3147 -91 2228 -91 
Q 1306 -91 806 539 
Q 306 1169 306 2328 
Q 306 3491 806 4120 
Q 1306 4750 2228 4750 
Q 3147 4750 3647 4120 
Q 4147 3491 4147 2328 
z
" transform="scale(0.015625)"/>
       <path id="DejaVuSans-Bold-2e" d="M 653 1209 
L 1778 1209 
L 1778 0 
L 653 0 
L 653 1209 
z
" transform="scale(0.015625)"/>
       <path id="DejaVuSans-Bold-36" d="M 2316 2303 
Q 2000 2303 1842 2098 
Q 1684 1894 1684 1484 
Q 1684 1075 1842 870 
Q 2000 666 2316 666 
Q 2634 666 2792 870 
Q 2950 1075 2950 1484 
Q 2950 1894 2792 2098 
Q 2634 2303 2316 2303 
z
M 3803 4544 
L 3803 3681 
Q 3506 3822 3243 3889 
Q 2981 3956 2731 3956 
Q 2194 3956 1894 3657 
Q 1594 3359 1544 2772 
Q 1750 2925 1990 3001 
Q 2231 3078 2516 3078 
Q 3231 3078 3670 2659 
Q 4109 2241 4109 1563 
Q 4109 813 3618 361 
Q 3128 -91 2303 -91 
Q 1394 -91 895 523 
Q 397 1138 397 2266 
Q 397 3422 980 4083 
Q 1563 4744 2578 4744 
Q 2900 4744 3203 4694 
Q 3506 4644 3803 4544 
z
" transform="scale(0.015625)"/>
       <path id="DejaVuSans-Bold-34" d="M 2356 3675 
L 1038 1722 
L 2356 1722 
L 2356 3675 
z
M 2156 4666 
L 3494 4666 
L 3494 1722 
L 4159 1722 
L 4159 850 
L 3494 850 
L 3494 0 
L 2356 0 
L 2356 850 
L 288 850 
L 288 1881 
L 2156 4666 
z
" transform="scale(0.015625)"/>
       <path id="DejaVuSans-Bold-35" d="M 678 4666 
L 3669 4666 
L 3669 3781 
L 1638 3781 
L 1638 3059 
Q 1775 3097 1914 3117 
Q 2053 3138 2203 3138 
Q 3056 3138 3531 2711 
Q 4006 2284 4006 1522 
Q 4006 766 3489 337 
Q 2972 -91 2053 -91 
Q 1656 -91 1267 -14 
Q 878 63 494 219 
L 494 1166 
Q 875 947 1217 837 
Q 1559 728 1863 728 
Q 2300 728 2551 942 
Q 2803 1156 2803 1522 
Q 2803 1891 2551 2103 
Q 2300 2316 1863 2316 
Q 1603 2316 1309 2248 
Q 1016 2181 678 2041 
L 678 4666 
z
" transform="scale(0.015625)"/>
      </defs>
      <use xlink:href="#DejaVuSans-Bold-30"/>
      <use xlink:href="#DejaVuSans-Bold-2e" transform="translate(69.580078 0)"/>
      <use xlink:href="#DejaVuSans-Bold-30" transform="translate(107.568359 0)"/>
      <use xlink:href="#DejaVuSans-Bold-36" transform="translate(177.148438 0)"/>
      <use xlink:href="#DejaVuSans-Bold-34" transform="translate(246.728516 0)"/>
      <use xlink:href="#DejaVuSans-Bold-35" transform="translate(316.308594 0)"/>
      <use xlink:href="#DejaVuSans-Bold-31" transform="translate(385.888672 0)"/>
      <use xlink:href="#DejaVuSans-Bold-36" transform="translate(455.46875 0)"/>
     </g>
    </g>
    <g id="patch_34">
     <path d="M 1171.296 275.688 
L 1293.12 275.688 
L 1293.12 230.0688 
L 1171.296 230.0688 
z
" style="fill: #ecfdf5; stroke: #cbd5e1; stroke-width: 0.8; stroke-linejoin: miter"/>
    </g>
    <g id="text_33">
     <!-- 0.121212 -->
     <g style="fill: #166534" transform="translate(1203.856313 255.858525) scale(0.108 -0.108)">
      <use xlink:href="#DejaVuSans-Bold-30"/>
      <use xlink:href="#DejaVuSans-Bold-2e" transform="translate(69.580078 0)"/>
      <use xlink:href="#DejaVuSans-Bold-31" transform="translate(107.568359 0)"/>
      <use xlink:href="#DejaVuSans-Bold-32" transform="translate(177.148438 0)"/>
      <use xlink:href="#DejaVuSans-Bold-31" transform="translate(246.728516 0)"/>
      <use xlink:href="#DejaVuSans-Bold-32" transform="translate(316.308594 0)"/>
      <use xlink:href="#DejaVuSans-Bold-31" transform="translate(385.888672 0)"/>
      <use xlink:href="#DejaVuSans-Bold-32" transform="translate(455.46875 0)"/>
     </g>
    </g>
    <g id="patch_35">
     <path d="M 74.88 321.3072 
L 142.56 321.3072 
L 142.56 275.688 
L 74.88 275.688 
z
" style="fill: #ffffff; stroke: #cbd5e1; stroke-width: 0.8; stroke-linejoin: miter"/>
    </g>
    <g id="text_34">
     <!-- E3 -->
     <g style="fill: #0f172a" transform="translate(101.273906 301.477725) scale(0.108 -0.108)">
      <defs>
       <path id="DejaVuSans-Bold-33" d="M 2981 2516 
Q 3453 2394 3698 2092 
Q 3944 1791 3944 1325 
Q 3944 631 3412 270 
Q 2881 -91 1863 -91 
Q 1503 -91 1142 -33 
Q 781 25 428 141 
L 428 1069 
Q 766 900 1098 814 
Q 1431 728 1753 728 
Q 2231 728 2486 893 
Q 2741 1059 2741 1369 
Q 2741 1688 2480 1852 
Q 2219 2016 1709 2016 
L 1228 2016 
L 1228 2791 
L 1734 2791 
Q 2188 2791 2409 2933 
Q 2631 3075 2631 3366 
Q 2631 3634 2415 3781 
Q 2200 3928 1806 3928 
Q 1516 3928 1219 3862 
Q 922 3797 628 3669 
L 628 4550 
Q 984 4650 1334 4700 
Q 1684 4750 2022 4750 
Q 2931 4750 3382 4451 
Q 3834 4153 3834 3553 
Q 3834 3144 3618 2883 
Q 3403 2622 2981 2516 
z
" transform="scale(0.015625)"/>
      </defs>
      <use xlink:href="#DejaVuSans-Bold-45"/>
      <use xlink:href="#DejaVuSans-Bold-33" transform="translate(68.310547 0)"/>
     </g>
    </g>
    <g id="patch_36">
     <path d="M 142.56 321.3072 
L 291.456 321.3072 
L 291.456 275.688 
L 142.56 275.688 
z
" style="fill: #ffffff; stroke: #cbd5e1; stroke-width: 0.8; stroke-linejoin: miter"/>
    </g>
    <g id="text_35">
     <!-- rerank -->
     <g style="fill: #0f172a" transform="translate(196.94025 301.477725) scale(0.108 -0.108)">
      <use xlink:href="#DejaVuSans-Bold-72"/>
      <use xlink:href="#DejaVuSans-Bold-65" transform="translate(49.316406 0)"/>
      <use xlink:href="#DejaVuSans-Bold-72" transform="translate(117.138672 0)"/>
      <use xlink:href="#DejaVuSans-Bold-61" transform="translate(166.455078 0)"/>
      <use xlink:href="#DejaVuSans-Bold-6e" transform="translate(233.935547 0)"/>
      <use xlink:href="#DejaVuSans-Bold-6b" transform="translate(305.126953 0)"/>
     </g>
    </g>
    <g id="patch_37">
     <path d="M 291.456 321.3072 
L 399.744 321.3072 
L 399.744 275.688 
L 291.456 275.688 
z
" style="fill: #ffffff; stroke: #cbd5e1; stroke-width: 0.8; stroke-linejoin: miter"/>
    </g>
    <g id="text_36">
     <!-- 0-998 -->
     <g transform="translate(329.908781 301.477725) scale(0.108 -0.108)">
      <use xlink:href="#DejaVuSans-30"/>
      <use xlink:href="#DejaVuSans-2d" transform="translate(63.623047 0)"/>
      <use xlink:href="#DejaVuSans-39" transform="translate(99.707031 0)"/>
      <use xlink:href="#DejaVuSans-39" transform="translate(163.330078 0)"/>
      <use xlink:href="#DejaVuSans-38" transform="translate(226.953125 0)"/>
     </g>
    </g>
    <g id="patch_38">
     <path d="M 399.744 321.3072 
L 494.496 321.3072 
L 494.496 275.688 
L 399.744 275.688 
z
" style="fill: #ffffff; stroke: #cbd5e1; stroke-width: 0.8; stroke-linejoin: miter"/>
    </g>
    <g id="text_37">
     <!-- 12275 -->
     <g transform="translate(429.94125 301.477725) scale(0.108 -0.108)">
      <use xlink:href="#DejaVuSans-31"/>
      <use xlink:href="#DejaVuSans-32" transform="translate(63.623047 0)"/>
      <use xlink:href="#DejaVuSans-32" transform="translate(127.246094 0)"/>
      <use xlink:href="#DejaVuSans-37" transform="translate(190.869141 0)"/>
      <use xlink:href="#DejaVuSans-35" transform="translate(254.492188 0)"/>
     </g>
    </g>
    <g id="patch_39">
     <path d="M 494.496 321.3072 
L 589.248 321.3072 
L 589.248 275.688 
L 494.496 275.688 
z
" style="fill: #ffffff; stroke: #cbd5e1; stroke-width: 0.8; stroke-linejoin: miter"/>
    </g>
    <g id="text_38">
     <!-- 937 -->
     <g transform="translate(531.56475 301.477725) scale(0.108 -0.108)">
      <use xlink:href="#DejaVuSans-39"/>
      <use xlink:href="#DejaVuSans-33" transform="translate(63.623047 0)"/>
      <use xlink:href="#DejaVuSans-37" transform="translate(127.246094 0)"/>
     </g>
    </g>
    <g id="patch_40">
     <path d="M 589.248 321.3072 
L 670.464 321.3072 
L 670.464 275.688 
L 589.248 275.688 
z
" style="fill: #ffffff; stroke: #cbd5e1; stroke-width: 0.8; stroke-linejoin: miter"/>
    </g>
    <g id="text_39">
     <!-- 516 -->
     <g transform="translate(619.54875 301.477725) scale(0.108 -0.108)">
      <use xlink:href="#DejaVuSans-35"/>
      <use xlink:href="#DejaVuSans-31" transform="translate(63.623047 0)"/>
      <use xlink:href="#DejaVuSans-36" transform="translate(127.246094 0)"/>
     </g>
    </g>
    <g id="patch_41">
     <path d="M 670.464 321.3072 
L 751.68 321.3072 
L 751.68 275.688 
L 670.464 275.688 
z
" style="fill: #ffffff; stroke: #cbd5e1; stroke-width: 0.8; stroke-linejoin: miter"/>
    </g>
    <g id="text_40">
     <!-- 421 -->
     <g transform="translate(700.76475 301.477725) scale(0.108 -0.108)">
      <use xlink:href="#DejaVuSans-34"/>
      <use xlink:href="#DejaVuSans-32" transform="translate(63.623047 0)"/>
      <use xlink:href="#DejaVuSans-31" transform="translate(127.246094 0)"/>
     </g>
    </g>
    <g id="patch_42">
     <path d="M 751.68 321.3072 
L 846.432 321.3072 
L 846.432 275.688 
L 751.68 275.688 
z
" style="fill: #ffffff; stroke: #cbd5e1; stroke-width: 0.8; stroke-linejoin: miter"/>
    </g>
    <g id="text_41">
     <!-- 11759 -->
     <g transform="translate(781.87725 301.477725) scale(0.108 -0.108)">
      <use xlink:href="#DejaVuSans-31"/>
      <use xlink:href="#DejaVuSans-31" transform="translate(63.623047 0)"/>
      <use xlink:href="#DejaVuSans-37" transform="translate(127.246094 0)"/>
      <use xlink:href="#DejaVuSans-35" transform="translate(190.869141 0)"/>
      <use xlink:href="#DejaVuSans-39" transform="translate(254.492188 0)"/>
     </g>
    </g>
    <g id="patch_43">
     <path d="M 846.432 321.3072 
L 1022.4 321.3072 
L 1022.4 275.688 
L 846.432 275.688 
z
" style="fill: #ffffff; stroke: #cbd5e1; stroke-width: 0.8; stroke-linejoin: miter"/>
    </g>
    <g id="text_42">
     <!-- 0.550694 -->
     <g transform="translate(908.649562 301.477725) scale(0.108 -0.108)">
      <use xlink:href="#DejaVuSans-30"/>
      <use xlink:href="#DejaVuSans-2e" transform="translate(63.623047 0)"/>
      <use xlink:href="#DejaVuSans-35" transform="translate(95.410156 0)"/>
      <use xlink:href="#DejaVuSans-35" transform="translate(159.033203 0)"/>
      <use xlink:href="#DejaVuSans-30" transform="translate(222.65625 0)"/>
      <use xlink:href="#DejaVuSans-36" transform="translate(286.279297 0)"/>
      <use xlink:href="#DejaVuSans-39" transform="translate(349.902344 0)"/>
      <use xlink:href="#DejaVuSans-34" transform="translate(413.525391 0)"/>
     </g>
    </g>
    <g id="patch_44">
     <path d="M 1022.4 321.3072 
L 1171.296 321.3072 
L 1171.296 275.688 
L 1022.4 275.688 
z
" style="fill: #ffffff; stroke: #cbd5e1; stroke-width: 0.8; stroke-linejoin: miter"/>
    </g>
    <g id="text_43">
     <!-- 0.042037 -->
     <g transform="translate(1071.081563 301.477725) scale(0.108 -0.108)">
      <use xlink:href="#DejaVuSans-30"/>
      <use xlink:href="#DejaVuSans-2e" transform="translate(63.623047 0)"/>
      <use xlink:href="#DejaVuSans-30" transform="translate(95.410156 0)"/>
      <use xlink:href="#DejaVuSans-34" transform="translate(159.033203 0)"/>
      <use xlink:href="#DejaVuSans-32" transform="translate(222.65625 0)"/>
      <use xlink:href="#DejaVuSans-30" transform="translate(286.279297 0)"/>
      <use xlink:href="#DejaVuSans-33" transform="translate(349.902344 0)"/>
      <use xlink:href="#DejaVuSans-37" transform="translate(413.525391 0)"/>
     </g>
    </g>
    <g id="patch_45">
     <path d="M 1171.296 321.3072 
L 1293.12 321.3072 
L 1293.12 275.688 
L 1171.296 275.688 
z
" style="fill: #ffffff; stroke: #cbd5e1; stroke-width: 0.8; stroke-linejoin: miter"/>
    </g>
    <g id="text_44">
     <!-- 0.078111 -->
     <g transform="translate(1206.441563 301.477725) scale(0.108 -0.108)">
      <use xlink:href="#DejaVuSans-30"/>
      <use xlink:href="#DejaVuSans-2e" transform="translate(63.623047 0)"/>
      <use xlink:href="#DejaVuSans-30" transform="translate(95.410156 0)"/>
      <use xlink:href="#DejaVuSans-37" transform="translate(159.033203 0)"/>
      <use xlink:href="#DejaVuSans-38" transform="translate(222.65625 0)"/>
      <use xlink:href="#DejaVuSans-31" transform="translate(286.279297 0)"/>
      <use xlink:href="#DejaVuSans-31" transform="translate(349.902344 0)"/>
      <use xlink:href="#DejaVuSans-31" transform="translate(413.525391 0)"/>
     </g>
    </g>
   </g>
   <g id="text_45">
    <!-- ?1 ???????Precision / Recall / F1? -->
    <g style="fill: #0f172a" transform="translate(7.2 76.104) scale(0.14 -0.14)">
     <defs>
      <path id="DejaVuSans-Bold-20" transform="scale(0.015625)"/>
      <path id="DejaVuSans-Bold-2f" d="M 1644 4666 
L 2338 4666 
L 691 -594 
L 0 -594 
L 1644 4666 
z
" transform="scale(0.015625)"/>
     </defs>
     <use xlink:href="#DejaVuSans-Bold-3f"/>
     <use xlink:href="#DejaVuSans-Bold-31" transform="translate(58.007812 0)"/>
     <use xlink:href="#DejaVuSans-Bold-20" transform="translate(127.587891 0)"/>
     <use xlink:href="#DejaVuSans-Bold-3f" transform="translate(162.402344 0)"/>
     <use xlink:href="#DejaVuSans-Bold-3f" transform="translate(220.410156 0)"/>
     <use xlink:href="#DejaVuSans-Bold-3f" transform="translate(278.417969 0)"/>
     <use xlink:href="#DejaVuSans-Bold-3f" transform="translate(336.425781 0)"/>
     <use xlink:href="#DejaVuSans-Bold-3f" transform="translate(394.433594 0)"/>
     <use xlink:href="#DejaVuSans-Bold-3f" transform="translate(452.441406 0)"/>
     <use xlink:href="#DejaVuSans-Bold-3f" transform="translate(510.449219 0)"/>
     <use xlink:href="#DejaVuSans-Bold-50" transform="translate(568.457031 0)"/>
     <use xlink:href="#DejaVuSans-Bold-72" transform="translate(641.748047 0)"/>
     <use xlink:href="#DejaVuSans-Bold-65" transform="translate(691.064453 0)"/>
     <use xlink:href="#DejaVuSans-Bold-63" transform="translate(758.886719 0)"/>
     <use xlink:href="#DejaVuSans-Bold-69" transform="translate(818.164062 0)"/>
     <use xlink:href="#DejaVuSans-Bold-73" transform="translate(852.441406 0)"/>
     <use xlink:href="#DejaVuSans-Bold-69" transform="translate(911.962891 0)"/>
     <use xlink:href="#DejaVuSans-Bold-6f" transform="translate(946.240234 0)"/>
     <use xlink:href="#DejaVuSans-Bold-6e" transform="translate(1014.941406 0)"/>
     <use xlink:href="#DejaVuSans-Bold-20" transform="translate(1086.132812 0)"/>
     <use xlink:href="#DejaVuSans-Bold-2f" transform="translate(1120.947266 0)"/>
     <use xlink:href="#DejaVuSans-Bold-20" transform="translate(1157.470703 0)"/>
     <use xlink:href="#DejaVuSans-Bold-52" transform="translate(1192.285156 0)"/>
     <use xlink:href="#DejaVuSans-Bold-65" transform="translate(1269.287109 0)"/>
     <use xlink:href="#DejaVuSans-Bold-63" transform="translate(1337.109375 0)"/>
     <use xlink:href="#DejaVuSans-Bold-61" transform="translate(1396.386719 0)"/>
     <use xlink:href="#DejaVuSans-Bold-6c" transform="translate(1463.867188 0)"/>
     <use xlink:href="#DejaVuSans-Bold-6c" transform="translate(1498.144531 0)"/>
     <use xlink:href="#DejaVuSans-Bold-20" transform="translate(1532.421875 0)"/>
     <use xlink:href="#DejaVuSans-Bold-2f" transform="translate(1567.236328 0)"/>
     <use xlink:href="#DejaVuSans-Bold-20" transform="translate(1603.759766 0)"/>
     <use xlink:href="#DejaVuSans-Bold-46" transform="translate(1638.574219 0)"/>
     <use xlink:href="#DejaVuSans-Bold-31" transform="translate(1706.884766 0)"/>
     <use xlink:href="#DejaVuSans-Bold-3f" transform="translate(1776.464844 0)"/>
    </g>
   </g>
  </g>
  <g id="axes_2">
   <g id="table_2">
    <g id="patch_46">
     <path d="M 180 489.4488 
L 381.6 489.4488 
L 381.6 456.66 
L 180 456.66 
z
" style="fill: #334155; stroke: #0f172a; stroke-width: 1.1; stroke-linejoin: miter"/>
    </g>
    <g id="text_46">
     <!-- ?? -->
     <g style="fill: #ffffff" transform="translate(274.30225 476.1449) scale(0.112 -0.112)">
      <use xlink:href="#DejaVuSans-Bold-3f"/>
      <use xlink:href="#DejaVuSans-Bold-3f" transform="translate(58.007812 0)"/>
     </g>
    </g>
    <g id="patch_47">
     <path d="M 381.6 489.4488 
L 583.2 489.4488 
L 583.2 456.66 
L 381.6 456.66 
z
" style="fill: #334155; stroke: #0f172a; stroke-width: 1.1; stroke-linejoin: miter"/>
    </g>
    <g id="text_47">
     <!-- S5 Prompt -->
     <g style="fill: #ffffff" transform="translate(449.287375 476.1449) scale(0.112 -0.112)">
      <defs>
       <path id="DejaVuSans-Bold-53" d="M 3834 4519 
L 3834 3531 
Q 3450 3703 3084 3790 
Q 2719 3878 2394 3878 
Q 1963 3878 1756 3759 
Q 1550 3641 1550 3391 
Q 1550 3203 1689 3098 
Q 1828 2994 2194 2919 
L 2706 2816 
Q 3484 2659 3812 2340 
Q 4141 2022 4141 1434 
Q 4141 663 3683 286 
Q 3225 -91 2284 -91 
Q 1841 -91 1394 -6 
Q 947 78 500 244 
L 500 1259 
Q 947 1022 1364 901 
Q 1781 781 2169 781 
Q 2563 781 2772 912 
Q 2981 1044 2981 1288 
Q 2981 1506 2839 1625 
Q 2697 1744 2272 1838 
L 1806 1941 
Q 1106 2091 782 2419 
Q 459 2747 459 3303 
Q 459 4000 909 4375 
Q 1359 4750 2203 4750 
Q 2588 4750 2994 4692 
Q 3400 4634 3834 4519 
z
" transform="scale(0.015625)"/>
       <path id="DejaVuSans-Bold-6d" d="M 3781 2919 
Q 3994 3244 4286 3414 
Q 4578 3584 4928 3584 
Q 5531 3584 5847 3212 
Q 6163 2841 6163 2131 
L 6163 0 
L 5038 0 
L 5038 1825 
Q 5041 1866 5042 1909 
Q 5044 1953 5044 2034 
Q 5044 2406 4934 2573 
Q 4825 2741 4581 2741 
Q 4263 2741 4089 2478 
Q 3916 2216 3909 1719 
L 3909 0 
L 2784 0 
L 2784 1825 
Q 2784 2406 2684 2573 
Q 2584 2741 2328 2741 
Q 2006 2741 1831 2477 
Q 1656 2213 1656 1722 
L 1656 0 
L 531 0 
L 531 3500 
L 1656 3500 
L 1656 2988 
Q 1863 3284 2130 3434 
Q 2397 3584 2719 3584 
Q 3081 3584 3359 3409 
Q 3638 3234 3781 2919 
z
" transform="scale(0.015625)"/>
       <path id="DejaVuSans-Bold-70" d="M 1656 506 
L 1656 -1331 
L 538 -1331 
L 538 3500 
L 1656 3500 
L 1656 2988 
Q 1888 3294 2169 3439 
Q 2450 3584 2816 3584 
Q 3463 3584 3878 3070 
Q 4294 2556 4294 1747 
Q 4294 938 3878 423 
Q 3463 -91 2816 -91 
Q 2450 -91 2169 54 
Q 1888 200 1656 506 
z
M 2400 2772 
Q 2041 2772 1848 2508 
Q 1656 2244 1656 1747 
Q 1656 1250 1848 986 
Q 2041 722 2400 722 
Q 2759 722 2948 984 
Q 3138 1247 3138 1747 
Q 3138 2247 2948 2509 
Q 2759 2772 2400 2772 
z
" transform="scale(0.015625)"/>
       <path id="DejaVuSans-Bold-74" d="M 1759 4494 
L 1759 3500 
L 2913 3500 
L 2913 2700 
L 1759 2700 
L 1759 1216 
Q 1759 972 1856 886 
Q 1953 800 2241 800 
L 2816 800 
L 2816 0 
L 1856 0 
Q 1194 0 917 276 
Q 641 553 641 1216 
L 641 2700 
L 84 2700 
L 84 3500 
L 641 3500 
L 641 4494 
L 1759 4494 
z
" transform="scale(0.015625)"/>
      </defs>
      <use xlink:href="#DejaVuSans-Bold-53"/>
      <use xlink:href="#DejaVuSans-Bold-35" transform="translate(72.021484 0)"/>
      <use xlink:href="#DejaVuSans-Bold-20" transform="translate(141.601562 0)"/>
      <use xlink:href="#DejaVuSans-Bold-50" transform="translate(176.416016 0)"/>
      <use xlink:href="#DejaVuSans-Bold-72" transform="translate(249.707031 0)"/>
      <use xlink:href="#DejaVuSans-Bold-6f" transform="translate(299.023438 0)"/>
      <use xlink:href="#DejaVuSans-Bold-6d" transform="translate(367.724609 0)"/>
      <use xlink:href="#DejaVuSans-Bold-70" transform="translate(471.923828 0)"/>
      <use xlink:href="#DejaVuSans-Bold-74" transform="translate(543.505859 0)"/>
     </g>
    </g>
    <g id="patch_48">
     <path d="M 583.2 489.4488 
L 784.8 489.4488 
L 784.8 456.66 
L 583.2 456.66 
z
" style="fill: #334155; stroke: #0f172a; stroke-width: 1.1; stroke-linejoin: miter"/>
    </g>
    <g id="text_48">
     <!-- S5 Label -->
     <g style="fill: #ffffff" transform="translate(657.047375 476.1449) scale(0.112 -0.112)">
      <defs>
       <path id="DejaVuSans-Bold-4c" d="M 588 4666 
L 1791 4666 
L 1791 909 
L 3903 909 
L 3903 0 
L 588 0 
L 588 4666 
z
" transform="scale(0.015625)"/>
      </defs>
      <use xlink:href="#DejaVuSans-Bold-53"/>
      <use xlink:href="#DejaVuSans-Bold-35" transform="translate(72.021484 0)"/>
      <use xlink:href="#DejaVuSans-Bold-20" transform="translate(141.601562 0)"/>
      <use xlink:href="#DejaVuSans-Bold-4c" transform="translate(176.416016 0)"/>
      <use xlink:href="#DejaVuSans-Bold-61" transform="translate(240.136719 0)"/>
      <use xlink:href="#DejaVuSans-Bold-62" transform="translate(307.617188 0)"/>
      <use xlink:href="#DejaVuSans-Bold-65" transform="translate(379.199219 0)"/>
      <use xlink:href="#DejaVuSans-Bold-6c" transform="translate(447.021484 0)"/>
     </g>
    </g>
    <g id="patch_49">
     <path d="M 784.8 489.4488 
L 986.4 489.4488 
L 986.4 456.66 
L 784.8 456.66 
z
" style="fill: #334155; stroke: #0f172a; stroke-width: 1.1; stroke-linejoin: miter"/>
    </g>
    <g id="text_49">
     <!-- S6 Prompt -->
     <g style="fill: #ffffff" transform="translate(852.487375 476.1449) scale(0.112 -0.112)">
      <use xlink:href="#DejaVuSans-Bold-53"/>
      <use xlink:href="#DejaVuSans-Bold-36" transform="translate(72.021484 0)"/>
      <use xlink:href="#DejaVuSans-Bold-20" transform="translate(141.601562 0)"/>
      <use xlink:href="#DejaVuSans-Bold-50" transform="translate(176.416016 0)"/>
      <use xlink:href="#DejaVuSans-Bold-72" transform="translate(249.707031 0)"/>
      <use xlink:href="#DejaVuSans-Bold-6f" transform="translate(299.023438 0)"/>
      <use xlink:href="#DejaVuSans-Bold-6d" transform="translate(367.724609 0)"/>
      <use xlink:href="#DejaVuSans-Bold-70" transform="translate(471.923828 0)"/>
      <use xlink:href="#DejaVuSans-Bold-74" transform="translate(543.505859 0)"/>
     </g>
    </g>
    <g id="patch_50">
     <path d="M 986.4 489.4488 
L 1188 489.4488 
L 1188 456.66 
L 986.4 456.66 
z
" style="fill: #334155; stroke: #0f172a; stroke-width: 1.1; stroke-linejoin: miter"/>
    </g>
    <g id="text_50">
     <!-- ????? -->
     <g style="fill: #ffffff" transform="translate(1070.955625 476.1449) scale(0.112 -0.112)">
      <use xlink:href="#DejaVuSans-Bold-3f"/>
      <use xlink:href="#DejaVuSans-Bold-3f" transform="translate(58.007812 0)"/>
      <use xlink:href="#DejaVuSans-Bold-3f" transform="translate(116.015625 0)"/>
      <use xlink:href="#DejaVuSans-Bold-3f" transform="translate(174.023438 0)"/>
      <use xlink:href="#DejaVuSans-Bold-3f" transform="translate(232.03125 0)"/>
     </g>
    </g>
    <g id="patch_51">
     <path d="M 180 526.5144 
L 381.6 526.5144 
L 381.6 489.4488 
L 180 489.4488 
z
" style="fill: #ffffff; stroke: #cbd5e1; stroke-width: 0.8; stroke-linejoin: miter"/>
    </g>
    <g id="text_51">
     <!-- baseline -->
     <g style="fill: #0f172a" transform="translate(254.256875 511.0721) scale(0.112 -0.112)">
      <use xlink:href="#DejaVuSans-Bold-62"/>
      <use xlink:href="#DejaVuSans-Bold-61" transform="translate(71.582031 0)"/>
      <use xlink:href="#DejaVuSans-Bold-73" transform="translate(139.0625 0)"/>
      <use xlink:href="#DejaVuSans-Bold-65" transform="translate(198.583984 0)"/>
      <use xlink:href="#DejaVuSans-Bold-6c" transform="translate(266.40625 0)"/>
      <use xlink:href="#DejaVuSans-Bold-69" transform="translate(300.683594 0)"/>
      <use xlink:href="#DejaVuSans-Bold-6e" transform="translate(334.960938 0)"/>
      <use xlink:href="#DejaVuSans-Bold-65" transform="translate(406.152344 0)"/>
     </g>
    </g>
    <g id="patch_52">
     <path d="M 381.6 526.5144 
L 583.2 526.5144 
L 583.2 489.4488 
L 381.6 489.4488 
z
" style="fill: #ffffff; stroke: #cbd5e1; stroke-width: 0.8; stroke-linejoin: miter"/>
    </g>
    <g id="text_52">
     <!-- 109 -->
     <g transform="translate(471.711 511.0721) scale(0.112 -0.112)">
      <use xlink:href="#DejaVuSans-31"/>
      <use xlink:href="#DejaVuSans-30" transform="translate(63.623047 0)"/>
      <use xlink:href="#DejaVuSans-39" transform="translate(127.246094 0)"/>
     </g>
    </g>
    <g id="patch_53">
     <path d="M 583.2 526.5144 
L 784.8 526.5144 
L 784.8 489.4488 
L 583.2 489.4488 
z
" style="fill: #ffffff; stroke: #cbd5e1; stroke-width: 0.8; stroke-linejoin: miter"/>
    </g>
    <g id="text_53">
     <!-- 34 -->
     <g transform="translate(676.874 511.0721) scale(0.112 -0.112)">
      <use xlink:href="#DejaVuSans-33"/>
      <use xlink:href="#DejaVuSans-34" transform="translate(63.623047 0)"/>
     </g>
    </g>
    <g id="patch_54">
     <path d="M 784.8 526.5144 
L 986.4 526.5144 
L 986.4 489.4488 
L 784.8 489.4488 
z
" style="fill: #ffffff; stroke: #cbd5e1; stroke-width: 0.8; stroke-linejoin: miter"/>
    </g>
    <g id="text_54">
     <!-- 74 -->
     <g transform="translate(878.474 511.0721) scale(0.112 -0.112)">
      <use xlink:href="#DejaVuSans-37"/>
      <use xlink:href="#DejaVuSans-34" transform="translate(63.623047 0)"/>
     </g>
    </g>
    <g id="patch_55">
     <path d="M 986.4 526.5144 
L 1188 526.5144 
L 1188 489.4488 
L 986.4 489.4488 
z
" style="fill: #ffffff; stroke: #cbd5e1; stroke-width: 0.8; stroke-linejoin: miter"/>
    </g>
    <g id="text_55">
     <!-- 3 -->
     <g transform="translate(1083.637 511.0721) scale(0.112 -0.112)">
      <use xlink:href="#DejaVuSans-33"/>
     </g>
    </g>
    <g id="patch_56">
     <path d="M 180 563.58 
L 381.6 563.58 
L 381.6 526.5144 
L 180 526.5144 
z
" style="fill: #f8fafc; stroke: #cbd5e1; stroke-width: 0.8; stroke-linejoin: miter"/>
    </g>
    <g id="text_56">
     <!-- rerank -->
     <g style="fill: #0f172a" transform="translate(259.989 548.1377) scale(0.112 -0.112)">
      <use xlink:href="#DejaVuSans-Bold-72"/>
      <use xlink:href="#DejaVuSans-Bold-65" transform="translate(49.316406 0)"/>
      <use xlink:href="#DejaVuSans-Bold-72" transform="translate(117.138672 0)"/>
      <use xlink:href="#DejaVuSans-Bold-61" transform="translate(166.455078 0)"/>
      <use xlink:href="#DejaVuSans-Bold-6e" transform="translate(233.935547 0)"/>
      <use xlink:href="#DejaVuSans-Bold-6b" transform="translate(305.126953 0)"/>
     </g>
    </g>
    <g id="patch_57">
     <path d="M 381.6 563.58 
L 583.2 563.58 
L 583.2 526.5144 
L 381.6 526.5144 
z
" style="fill: #f8fafc; stroke: #cbd5e1; stroke-width: 0.8; stroke-linejoin: miter"/>
    </g>
    <g id="text_57">
     <!-- 148 -->
     <g transform="translate(471.711 548.1377) scale(0.112 -0.112)">
      <use xlink:href="#DejaVuSans-31"/>
      <use xlink:href="#DejaVuSans-34" transform="translate(63.623047 0)"/>
      <use xlink:href="#DejaVuSans-38" transform="translate(127.246094 0)"/>
     </g>
    </g>
    <g id="patch_58">
     <path d="M 583.2 563.58 
L 784.8 563.58 
L 784.8 526.5144 
L 583.2 526.5144 
z
" style="fill: #f8fafc; stroke: #cbd5e1; stroke-width: 0.8; stroke-linejoin: miter"/>
    </g>
    <g id="text_58">
     <!-- 50 -->
     <g transform="translate(676.874 548.1377) scale(0.112 -0.112)">
      <use xlink:href="#DejaVuSans-35"/>
      <use xlink:href="#DejaVuSans-30" transform="translate(63.623047 0)"/>
     </g>
    </g>
    <g id="patch_59">
     <path d="M 784.8 563.58 
L 986.4 563.58 
L 986.4 526.5144 
L 784.8 526.5144 
z
" style="fill: #f8fafc; stroke: #cbd5e1; stroke-width: 0.8; stroke-linejoin: miter"/>
    </g>
    <g id="text_59">
     <!-- 98 -->
     <g transform="translate(878.474 548.1377) scale(0.112 -0.112)">
      <use xlink:href="#DejaVuSans-39"/>
      <use xlink:href="#DejaVuSans-38" transform="translate(63.623047 0)"/>
     </g>
    </g>
    <g id="patch_60">
     <path d="M 986.4 563.58 
L 1188 563.58 
L 1188 526.5144 
L 986.4 526.5144 
z
" style="fill: #f8fafc; stroke: #cbd5e1; stroke-width: 0.8; stroke-linejoin: miter"/>
    </g>
    <g id="text_60">
     <!-- 4 -->
     <g transform="translate(1083.637 548.1377) scale(0.112 -0.112)">
      <use xlink:href="#DejaVuSans-34"/>
     </g>
    </g>
   </g>
   <g id="text_61">
    <!-- ?2 ???????0-5? -->
    <g style="fill: #0f172a" transform="translate(180 424.584) scale(0.14 -0.14)">
     <defs>
      <path id="DejaVuSans-Bold-2d" d="M 347 2297 
L 2309 2297 
L 2309 1388 
L 347 1388 
L 347 2297 
z
" transform="scale(0.015625)"/>
     </defs>
     <use xlink:href="#DejaVuSans-Bold-3f"/>
     <use xlink:href="#DejaVuSans-Bold-32" transform="translate(58.007812 0)"/>
     <use xlink:href="#DejaVuSans-Bold-20" transform="translate(127.587891 0)"/>
     <use xlink:href="#DejaVuSans-Bold-3f" transform="translate(162.402344 0)"/>
     <use xlink:href="#DejaVuSans-Bold-3f" transform="translate(220.410156 0)"/>
     <use xlink:href="#DejaVuSans-Bold-3f" transform="translate(278.417969 0)"/>
     <use xlink:href="#DejaVuSans-Bold-3f" transform="translate(336.425781 0)"/>
     <use xlink:href="#DejaVuSans-Bold-3f" transform="translate(394.433594 0)"/>
     <use xlink:href="#DejaVuSans-Bold-3f" transform="translate(452.441406 0)"/>
     <use xlink:href="#DejaVuSans-Bold-3f" transform="translate(510.449219 0)"/>
     <use xlink:href="#DejaVuSans-Bold-30" transform="translate(568.457031 0)"/>
     <use xlink:href="#DejaVuSans-Bold-2d" transform="translate(638.037109 0)"/>
     <use xlink:href="#DejaVuSans-Bold-35" transform="translate(679.541016 0)"/>
     <use xlink:href="#DejaVuSans-Bold-3f" transform="translate(749.121094 0)"/>
    </g>
   </g>
  </g>
  <g id="text_62">
   <!-- DocRED ??????????? -->
   <g style="fill: #0f172a" transform="translate(550.5225 25.43625) scale(0.24 -0.24)">
    <defs>
     <path id="DejaVuSans-Bold-44" d="M 1791 3756 
L 1791 909 
L 2222 909 
Q 2959 909 3348 1275 
Q 3738 1641 3738 2338 
Q 3738 3031 3350 3393 
Q 2963 3756 2222 3756 
L 1791 3756 
z
M 588 4666 
L 1856 4666 
Q 2919 4666 3439 4514 
Q 3959 4363 4331 4000 
Q 4659 3684 4818 3271 
Q 4978 2859 4978 2338 
Q 4978 1809 4818 1395 
Q 4659 981 4331 666 
Q 3956 303 3431 151 
Q 2906 0 1856 0 
L 588 0 
L 588 4666 
z
" transform="scale(0.015625)"/>
    </defs>
    <use xlink:href="#DejaVuSans-Bold-44"/>
    <use xlink:href="#DejaVuSans-Bold-6f" transform="translate(83.007812 0)"/>
    <use xlink:href="#DejaVuSans-Bold-63" transform="translate(151.708984 0)"/>
    <use xlink:href="#DejaVuSans-Bold-52" transform="translate(210.986328 0)"/>
    <use xlink:href="#DejaVuSans-Bold-45" transform="translate(287.988281 0)"/>
    <use xlink:href="#DejaVuSans-Bold-44" transform="translate(356.298828 0)"/>
    <use xlink:href="#DejaVuSans-Bold-20" transform="translate(439.306641 0)"/>
    <use xlink:href="#DejaVuSans-Bold-3f" transform="translate(474.121094 0)"/>
    <use xlink:href="#DejaVuSans-Bold-3f" transform="translate(532.128906 0)"/>
    <use xlink:href="#DejaVuSans-Bold-3f" transform="translate(590.136719 0)"/>
    <use xlink:href="#DejaVuSans-Bold-3f" transform="translate(648.144531 0)"/>
    <use xlink:href="#DejaVuSans-Bold-3f" transform="translate(706.152344 0)"/>
    <use xlink:href="#DejaVuSans-Bold-3f" transform="translate(764.160156 0)"/>
    <use xlink:href="#DejaVuSans-Bold-3f" transform="translate(822.167969 0)"/>
    <use xlink:href="#DejaVuSans-Bold-3f" transform="translate(880.175781 0)"/>
    <use xlink:href="#DejaVuSans-Bold-3f" transform="translate(938.183594 0)"/>
    <use xlink:href="#DejaVuSans-Bold-3f" transform="translate(996.191406 0)"/>
    <use xlink:href="#DejaVuSans-Bold-3f" transform="translate(1054.199219 0)"/>
   </g>
  </g>
  <g id="text_63">
   <!-- ??: Qwen2.5-3B-Instruct(4bit) | ????: evaluate_subset.py -->
   <g style="fill: #475569" transform="translate(514.688437 38.546625) scale(0.12 -0.12)">
    <defs>
     <path id="DejaVuSans-3f" d="M 1222 794 
L 1856 794 
L 1856 0 
L 1222 0 
L 1222 794 
z
M 1838 1253 
L 1241 1253 
L 1241 1734 
Q 1241 2050 1328 2253 
Q 1416 2456 1697 2725 
L 1978 3003 
Q 2156 3169 2236 3316 
Q 2316 3463 2316 3616 
Q 2316 3894 2111 4066 
Q 1906 4238 1569 4238 
Q 1322 4238 1042 4128 
Q 763 4019 459 3809 
L 459 4397 
Q 753 4575 1054 4662 
Q 1356 4750 1678 4750 
Q 2253 4750 2601 4447 
Q 2950 4144 2950 3647 
Q 2950 3409 2837 3195 
Q 2725 2981 2444 2713 
L 2169 2444 
Q 2022 2297 1961 2214 
Q 1900 2131 1875 2053 
Q 1856 1988 1847 1894 
Q 1838 1800 1838 1638 
L 1838 1253 
z
" transform="scale(0.015625)"/>
     <path id="DejaVuSans-3a" d="M 750 794 
L 1409 794 
L 1409 0 
L 750 0 
L 750 794 
z
M 750 3309 
L 1409 3309 
L 1409 2516 
L 750 2516 
L 750 3309 
z
" transform="scale(0.015625)"/>
     <path id="DejaVuSans-20" transform="scale(0.015625)"/>
     <path id="DejaVuSans-51" d="M 2522 4238 
Q 1834 4238 1429 3725 
Q 1025 3213 1025 2328 
Q 1025 1447 1429 934 
Q 1834 422 2522 422 
Q 3209 422 3611 934 
Q 4013 1447 4013 2328 
Q 4013 3213 3611 3725 
Q 3209 4238 2522 4238 
z
M 3406 84 
L 4238 -825 
L 3475 -825 
L 2784 -78 
Q 2681 -84 2626 -87 
Q 2572 -91 2522 -91 
Q 1538 -91 948 567 
Q 359 1225 359 2328 
Q 359 3434 948 4092 
Q 1538 4750 2522 4750 
Q 3503 4750 4090 4092 
Q 4678 3434 4678 2328 
Q 4678 1516 4351 937 
Q 4025 359 3406 84 
z
" transform="scale(0.015625)"/>
     <path id="DejaVuSans-77" d="M 269 3500 
L 844 3500 
L 1563 769 
L 2278 3500 
L 2956 3500 
L 3675 769 
L 4391 3500 
L 4966 3500 
L 4050 0 
L 3372 0 
L 2619 2869 
L 1863 0 
L 1184 0 
L 269 3500 
z
" transform="scale(0.015625)"/>
     <path id="DejaVuSans-65" d="M 3597 1894 
L 3597 1613 
L 953 1613 
Q 991 1019 1311 708 
Q 1631 397 2203 397 
Q 2534 397 2845 478 
Q 3156 559 3463 722 
L 3463 178 
Q 3153 47 2828 -22 
Q 2503 -91 2169 -91 
Q 1331 -91 842 396 
Q 353 884 353 1716 
Q 353 2575 817 3079 
Q 1281 3584 2069 3584 
Q 2775 3584 3186 3129 
Q 3597 2675 3597 1894 
z
M 3022 2063 
Q 3016 2534 2758 2815 
Q 2500 3097 2075 3097 
Q 1594 3097 1305 2825 
Q 1016 2553 972 2059 
L 3022 2063 
z
" transform="scale(0.015625)"/>
     <path id="DejaVuSans-6e" d="M 3513 2113 
L 3513 0 
L 2938 0 
L 2938 2094 
Q 2938 2591 2744 2837 
Q 2550 3084 2163 3084 
Q 1697 3084 1428 2787 
Q 1159 2491 1159 1978 
L 1159 0 
L 581 0 
L 581 3500 
L 1159 3500 
L 1159 2956 
Q 1366 3272 1645 3428 
Q 1925 3584 2291 3584 
Q 2894 3584 3203 3211 
Q 3513 2838 3513 2113 
z
" transform="scale(0.015625)"/>
     <path id="DejaVuSans-42" d="M 1259 2228 
L 1259 519 
L 2272 519 
Q 2781 519 3026 730 
Q 3272 941 3272 1375 
Q 3272 1813 3026 2020 
Q 2781 2228 2272 2228 
L 1259 2228 
z
M 1259 4147 
L 1259 2741 
L 2194 2741 
Q 2656 2741 2882 2914 
Q 3109 3088 3109 3444 
Q 3109 3797 2882 3972 
Q 2656 4147 2194 4147 
L 1259 4147 
z
M 628 4666 
L 2241 4666 
Q 2963 4666 3353 4366 
Q 3744 4066 3744 3513 
Q 3744 3084 3544 2831 
Q 3344 2578 2956 2516 
Q 3422 2416 3680 2098 
Q 3938 1781 3938 1306 
Q 3938 681 3513 340 
Q 3088 0 2303 0 
L 628 0 
L 628 4666 
z
" transform="scale(0.015625)"/>
     <path id="DejaVuSans-49" d="M 628 4666 
L 1259 4666 
L 1259 0 
L 628 0 
L 628 4666 
z
" transform="scale(0.015625)"/>
     <path id="DejaVuSans-73" d="M 2834 3397 
L 2834 2853 
Q 2591 2978 2328 3040 
Q 2066 3103 1784 3103 
Q 1356 3103 1142 2972 
Q 928 2841 928 2578 
Q 928 2378 1081 2264 
Q 1234 2150 1697 2047 
L 1894 2003 
Q 2506 1872 2764 1633 
Q 3022 1394 3022 966 
Q 3022 478 2636 193 
Q 2250 -91 1575 -91 
Q 1294 -91 989 -36 
Q 684 19 347 128 
L 347 722 
Q 666 556 975 473 
Q 1284 391 1588 391 
Q 1994 391 2212 530 
Q 2431 669 2431 922 
Q 2431 1156 2273 1281 
Q 2116 1406 1581 1522 
L 1381 1569 
Q 847 1681 609 1914 
Q 372 2147 372 2553 
Q 372 3047 722 3315 
Q 1072 3584 1716 3584 
Q 2034 3584 2315 3537 
Q 2597 3491 2834 3397 
z
" transform="scale(0.015625)"/>
     <path id="DejaVuSans-74" d="M 1172 4494 
L 1172 3500 
L 2356 3500 
L 2356 3053 
L 1172 3053 
L 1172 1153 
Q 1172 725 1289 603 
Q 1406 481 1766 481 
L 2356 481 
L 2356 0 
L 1766 0 
Q 1100 0 847 248 
Q 594 497 594 1153 
L 594 3053 
L 172 3053 
L 172 3500 
L 594 3500 
L 594 4494 
L 1172 4494 
z
" transform="scale(0.015625)"/>
     <path id="DejaVuSans-72" d="M 2631 2963 
Q 2534 3019 2420 3045 
Q 2306 3072 2169 3072 
Q 1681 3072 1420 2755 
Q 1159 2438 1159 1844 
L 1159 0 
L 581 0 
L 581 3500 
L 1159 3500 
L 1159 2956 
Q 1341 3275 1631 3429 
Q 1922 3584 2338 3584 
Q 2397 3584 2469 3576 
Q 2541 3569 2628 3553 
L 2631 2963 
z
" transform="scale(0.015625)"/>
     <path id="DejaVuSans-75" d="M 544 1381 
L 544 3500 
L 1119 3500 
L 1119 1403 
Q 1119 906 1312 657 
Q 1506 409 1894 409 
Q 2359 409 2629 706 
Q 2900 1003 2900 1516 
L 2900 3500 
L 3475 3500 
L 3475 0 
L 2900 0 
L 2900 538 
Q 2691 219 2414 64 
Q 2138 -91 1772 -91 
Q 1169 -91 856 284 
Q 544 659 544 1381 
z
M 1991 3584 
L 1991 3584 
z
" transform="scale(0.015625)"/>
     <path id="DejaVuSans-63" d="M 3122 3366 
L 3122 2828 
Q 2878 2963 2633 3030 
Q 2388 3097 2138 3097 
Q 1578 3097 1268 2742 
Q 959 2388 959 1747 
Q 959 1106 1268 751 
Q 1578 397 2138 397 
Q 2388 397 2633 464 
Q 2878 531 3122 666 
L 3122 134 
Q 2881 22 2623 -34 
Q 2366 -91 2075 -91 
Q 1284 -91 818 406 
Q 353 903 353 1747 
Q 353 2603 823 3093 
Q 1294 3584 2113 3584 
Q 2378 3584 2631 3529 
Q 2884 3475 3122 3366 
z
" transform="scale(0.015625)"/>
     <path id="DejaVuSans-28" d="M 1984 4856 
Q 1566 4138 1362 3434 
Q 1159 2731 1159 2009 
Q 1159 1288 1364 580 
Q 1569 -128 1984 -844 
L 1484 -844 
Q 1016 -109 783 600 
Q 550 1309 550 2009 
Q 550 2706 781 3412 
Q 1013 4119 1484 4856 
L 1984 4856 
z
" transform="scale(0.015625)"/>
     <path id="DejaVuSans-62" d="M 3116 1747 
Q 3116 2381 2855 2742 
Q 2594 3103 2138 3103 
Q 1681 3103 1420 2742 
Q 1159 2381 1159 1747 
Q 1159 1113 1420 752 
Q 1681 391 2138 391 
Q 2594 391 2855 752 
Q 3116 1113 3116 1747 
z
M 1159 2969 
Q 1341 3281 1617 3432 
Q 1894 3584 2278 3584 
Q 2916 3584 3314 3078 
Q 3713 2572 3713 1747 
Q 3713 922 3314 415 
Q 2916 -91 2278 -91 
Q 1894 -91 1617 61 
Q 1341 213 1159 525 
L 1159 0 
L 581 0 
L 581 4863 
L 1159 4863 
L 1159 2969 
z
" transform="scale(0.015625)"/>
     <path id="DejaVuSans-69" d="M 603 3500 
L 1178 3500 
L 1178 0 
L 603 0 
L 603 3500 
z
M 603 4863 
L 1178 4863 
L 1178 4134 
L 603 4134 
L 603 4863 
z
" transform="scale(0.015625)"/>
     <path id="DejaVuSans-29" d="M 513 4856 
L 1013 4856 
Q 1481 4119 1714 3412 
Q 1947 2706 1947 2009 
Q 1947 1309 1714 600 
Q 1481 -109 1013 -844 
L 513 -844 
Q 928 -128 1133 580 
Q 1338 1288 1338 2009 
Q 1338 2731 1133 3434 
Q 928 4138 513 4856 
z
" transform="scale(0.015625)"/>
     <path id="DejaVuSans-7c" d="M 1344 4891 
L 1344 -1509 
L 813 -1509 
L 813 4891 
L 1344 4891 
z
" transform="scale(0.015625)"/>
     <path id="DejaVuSans-76" d="M 191 3500 
L 800 3500 
L 1894 563 
L 2988 3500 
L 3597 3500 
L 2284 0 
L 1503 0 
L 191 3500 
z
" transform="scale(0.015625)"/>
     <path id="DejaVuSans-61" d="M 2194 1759 
Q 1497 1759 1228 1600 
Q 959 1441 959 1056 
Q 959 750 1161 570 
Q 1363 391 1709 391 
Q 2188 391 2477 730 
Q 2766 1069 2766 1631 
L 2766 1759 
L 2194 1759 
z
M 3341 1997 
L 3341 0 
L 2766 0 
L 2766 531 
Q 2569 213 2275 61 
Q 1981 -91 1556 -91 
Q 1019 -91 701 211 
Q 384 513 384 1019 
Q 384 1609 779 1909 
Q 1175 2209 1959 2209 
L 2766 2209 
L 2766 2266 
Q 2766 2663 2505 2880 
Q 2244 3097 1772 3097 
Q 1472 3097 1187 3025 
Q 903 2953 641 2809 
L 641 3341 
Q 956 3463 1253 3523 
Q 1550 3584 1831 3584 
Q 2591 3584 2966 3190 
Q 3341 2797 3341 1997 
z
" transform="scale(0.015625)"/>
     <path id="DejaVuSans-6c" d="M 603 4863 
L 1178 4863 
L 1178 0 
L 603 0 
L 603 4863 
z
" transform="scale(0.015625)"/>
     <path id="DejaVuSans-5f" d="M 3263 -1063 
L 3263 -1509 
L -63 -1509 
L -63 -1063 
L 3263 -1063 
z
" transform="scale(0.015625)"/>
     <path id="DejaVuSans-70" d="M 1159 525 
L 1159 -1331 
L 581 -1331 
L 581 3500 
L 1159 3500 
L 1159 2969 
Q 1341 3281 1617 3432 
Q 1894 3584 2278 3584 
Q 2916 3584 3314 3078 
Q 3713 2572 3713 1747 
Q 3713 922 3314 415 
Q 2916 -91 2278 -91 
Q 1894 -91 1617 61 
Q 1341 213 1159 525 
z
M 3116 1747 
Q 3116 2381 2855 2742 
Q 2594 3103 2138 3103 
Q 1681 3103 1420 2742 
Q 1159 2381 1159 1747 
Q 1159 1113 1420 752 
Q 1681 391 2138 391 
Q 2594 391 2855 752 
Q 3116 1113 3116 1747 
z
" transform="scale(0.015625)"/>
     <path id="DejaVuSans-79" d="M 2059 -325 
Q 1816 -950 1584 -1140 
Q 1353 -1331 966 -1331 
L 506 -1331 
L 506 -850 
L 844 -850 
Q 1081 -850 1212 -737 
Q 1344 -625 1503 -206 
L 1606 56 
L 191 3500 
L 800 3500 
L 1894 763 
L 2988 3500 
L 3597 3500 
L 2059 -325 
z
" transform="scale(0.015625)"/>
    </defs>
    <use xlink:href="#DejaVuSans-3f"/>
    <use xlink:href="#DejaVuSans-3f" transform="translate(53.076172 0)"/>
    <use xlink:href="#DejaVuSans-3a" transform="translate(106.152344 0)"/>
    <use xlink:href="#DejaVuSans-20" transform="translate(139.84375 0)"/>
    <use xlink:href="#DejaVuSans-51" transform="translate(171.630859 0)"/>
    <use xlink:href="#DejaVuSans-77" transform="translate(250.341797 0)"/>
    <use xlink:href="#DejaVuSans-65" transform="translate(332.128906 0)"/>
    <use xlink:href="#DejaVuSans-6e" transform="translate(393.652344 0)"/>
    <use xlink:href="#DejaVuSans-32" transform="translate(457.03125 0)"/>
    <use xlink:href="#DejaVuSans-2e" transform="translate(520.654297 0)"/>
    <use xlink:href="#DejaVuSans-35" transform="translate(552.441406 0)"/>
    <use xlink:href="#DejaVuSans-2d" transform="translate(616.064453 0)"/>
    <use xlink:href="#DejaVuSans-33" transform="translate(652.148438 0)"/>
    <use xlink:href="#DejaVuSans-42" transform="translate(715.771484 0)"/>
    <use xlink:href="#DejaVuSans-2d" transform="translate(784.375 0)"/>
    <use xlink:href="#DejaVuSans-49" transform="translate(820.458984 0)"/>
    <use xlink:href="#DejaVuSans-6e" transform="translate(849.951172 0)"/>
    <use xlink:href="#DejaVuSans-73" transform="translate(913.330078 0)"/>
    <use xlink:href="#DejaVuSans-74" transform="translate(965.429688 0)"/>
    <use xlink:href="#DejaVuSans-72" transform="translate(1004.638672 0)"/>
    <use xlink:href="#DejaVuSans-75" transform="translate(1045.751953 0)"/>
    <use xlink:href="#DejaVuSans-63" transform="translate(1109.130859 0)"/>
    <use xlink:href="#DejaVuSans-74" transform="translate(1164.111328 0)"/>
    <use xlink:href="#DejaVuSans-28" transform="translate(1203.320312 0)"/>
    <use xlink:href="#DejaVuSans-34" transform="translate(1242.333984 0)"/>
    <use xlink:href="#DejaVuSans-62" transform="translate(1305.957031 0)"/>
    <use xlink:href="#DejaVuSans-69" transform="translate(1369.433594 0)"/>
    <use xlink:href="#DejaVuSans-74" transform="translate(1397.216797 0)"/>
    <use xlink:href="#DejaVuSans-29" transform="translate(1436.425781 0)"/>
    <use xlink:href="#DejaVuSans-20" transform="translate(1475.439453 0)"/>
    <use xlink:href="#DejaVuSans-7c" transform="translate(1507.226562 0)"/>
    <use xlink:href="#DejaVuSans-20" transform="translate(1540.917969 0)"/>
    <use xlink:href="#DejaVuSans-3f" transform="translate(1572.705078 0)"/>
    <use xlink:href="#DejaVuSans-3f" transform="translate(1625.78125 0)"/>
    <use xlink:href="#DejaVuSans-3f" transform="translate(1678.857422 0)"/>
    <use xlink:href="#DejaVuSans-3f" transform="translate(1731.933594 0)"/>
    <use xlink:href="#DejaVuSans-3a" transform="translate(1785.009766 0)"/>
    <use xlink:href="#DejaVuSans-20" transform="translate(1818.701172 0)"/>
    <use xlink:href="#DejaVuSans-65" transform="translate(1850.488281 0)"/>
    <use xlink:href="#DejaVuSans-76" transform="translate(1912.011719 0)"/>
    <use xlink:href="#DejaVuSans-61" transform="translate(1971.191406 0)"/>
    <use xlink:href="#DejaVuSans-6c" transform="translate(2032.470703 0)"/>
    <use xlink:href="#DejaVuSans-75" transform="translate(2060.253906 0)"/>
    <use xlink:href="#DejaVuSans-61" transform="translate(2123.632812 0)"/>
    <use xlink:href="#DejaVuSans-74" transform="translate(2184.912109 0)"/>
    <use xlink:href="#DejaVuSans-65" transform="translate(2224.121094 0)"/>
    <use xlink:href="#DejaVuSans-5f" transform="translate(2285.644531 0)"/>
    <use xlink:href="#DejaVuSans-73" transform="translate(2335.644531 0)"/>
    <use xlink:href="#DejaVuSans-75" transform="translate(2387.744141 0)"/>
    <use xlink:href="#DejaVuSans-62" transform="translate(2451.123047 0)"/>
    <use xlink:href="#DejaVuSans-73" transform="translate(2514.599609 0)"/>
    <use xlink:href="#DejaVuSans-65" transform="translate(2566.699219 0)"/>
    <use xlink:href="#DejaVuSans-74" transform="translate(2628.222656 0)"/>
    <use xlink:href="#DejaVuSans-2e" transform="translate(2667.431641 0)"/>
    <use xlink:href="#DejaVuSans-70" transform="translate(2699.21875 0)"/>
    <use xlink:href="#DejaVuSans-79" transform="translate(2762.695312 0)"/>
   </g>
  </g>
  <g id="text_64">
   <!-- ???? dev 0-5 ??rerank ?? baseline ? Recall ? F1 ???F1: 0.092308 ? 0.121212?? -->
   <g style="fill: #0f172a" transform="translate(7.2 676.44) scale(0.115 -0.115)">
    <defs>
     <path id="DejaVuSans-64" d="M 2906 2969 
L 2906 4863 
L 3481 4863 
L 3481 0 
L 2906 0 
L 2906 525 
Q 2725 213 2448 61 
Q 2172 -91 1784 -91 
Q 1150 -91 751 415 
Q 353 922 353 1747 
Q 353 2572 751 3078 
Q 1150 3584 1784 3584 
Q 2172 3584 2448 3432 
Q 2725 3281 2906 2969 
z
M 947 1747 
Q 947 1113 1208 752 
Q 1469 391 1925 391 
Q 2381 391 2643 752 
Q 2906 1113 2906 1747 
Q 2906 2381 2643 2742 
Q 2381 3103 1925 3103 
Q 1469 3103 1208 2742 
Q 947 2381 947 1747 
z
" transform="scale(0.015625)"/>
     <path id="DejaVuSans-6b" d="M 581 4863 
L 1159 4863 
L 1159 1991 
L 2875 3500 
L 3609 3500 
L 1753 1863 
L 3688 0 
L 2938 0 
L 1159 1709 
L 1159 0 
L 581 0 
L 581 4863 
z
" transform="scale(0.015625)"/>
     <path id="DejaVuSans-52" d="M 2841 2188 
Q 3044 2119 3236 1894 
Q 3428 1669 3622 1275 
L 4263 0 
L 3584 0 
L 2988 1197 
Q 2756 1666 2539 1819 
Q 2322 1972 1947 1972 
L 1259 1972 
L 1259 0 
L 628 0 
L 628 4666 
L 2053 4666 
Q 2853 4666 3247 4331 
Q 3641 3997 3641 3322 
Q 3641 2881 3436 2590 
Q 3231 2300 2841 2188 
z
M 1259 4147 
L 1259 2491 
L 2053 2491 
Q 2509 2491 2742 2702 
Q 2975 2913 2975 3322 
Q 2975 3731 2742 3939 
Q 2509 4147 2053 4147 
L 1259 4147 
z
" transform="scale(0.015625)"/>
     <path id="DejaVuSans-46" d="M 628 4666 
L 3309 4666 
L 3309 4134 
L 1259 4134 
L 1259 2759 
L 3109 2759 
L 3109 2228 
L 1259 2228 
L 1259 0 
L 628 0 
L 628 4666 
z
" transform="scale(0.015625)"/>
    </defs>
    <use xlink:href="#DejaVuSans-3f"/>
    <use xlink:href="#DejaVuSans-3f" transform="translate(53.076172 0)"/>
    <use xlink:href="#DejaVuSans-3f" transform="translate(106.152344 0)"/>
    <use xlink:href="#DejaVuSans-3f" transform="translate(159.228516 0)"/>
    <use xlink:href="#DejaVuSans-20" transform="translate(212.304688 0)"/>
    <use xlink:href="#DejaVuSans-64" transform="translate(244.091797 0)"/>
    <use xlink:href="#DejaVuSans-65" transform="translate(307.568359 0)"/>
    <use xlink:href="#DejaVuSans-76" transform="translate(369.091797 0)"/>
    <use xlink:href="#DejaVuSans-20" transform="translate(428.271484 0)"/>
    <use xlink:href="#DejaVuSans-30" transform="translate(460.058594 0)"/>
    <use xlink:href="#DejaVuSans-2d" transform="translate(523.681641 0)"/>
    <use xlink:href="#DejaVuSans-35" transform="translate(559.765625 0)"/>
    <use xlink:href="#DejaVuSans-20" transform="translate(623.388672 0)"/>
    <use xlink:href="#DejaVuSans-3f" transform="translate(655.175781 0)"/>
    <use xlink:href="#DejaVuSans-3f" transform="translate(708.251953 0)"/>
    <use xlink:href="#DejaVuSans-72" transform="translate(761.328125 0)"/>
    <use xlink:href="#DejaVuSans-65" transform="translate(800.191406 0)"/>
    <use xlink:href="#DejaVuSans-72" transform="translate(861.714844 0)"/>
    <use xlink:href="#DejaVuSans-61" transform="translate(902.828125 0)"/>
    <use xlink:href="#DejaVuSans-6e" transform="translate(964.107422 0)"/>
    <use xlink:href="#DejaVuSans-6b" transform="translate(1027.486328 0)"/>
    <use xlink:href="#DejaVuSans-20" transform="translate(1085.396484 0)"/>
    <use xlink:href="#DejaVuSans-3f" transform="translate(1117.183594 0)"/>
    <use xlink:href="#DejaVuSans-3f" transform="translate(1170.259766 0)"/>
    <use xlink:href="#DejaVuSans-20" transform="translate(1223.335938 0)"/>
    <use xlink:href="#DejaVuSans-62" transform="translate(1255.123047 0)"/>
    <use xlink:href="#DejaVuSans-61" transform="translate(1318.599609 0)"/>
    <use xlink:href="#DejaVuSans-73" transform="translate(1379.878906 0)"/>
    <use xlink:href="#DejaVuSans-65" transform="translate(1431.978516 0)"/>
    <use xlink:href="#DejaVuSans-6c" transform="translate(1493.501953 0)"/>
    <use xlink:href="#DejaVuSans-69" transform="translate(1521.285156 0)"/>
    <use xlink:href="#DejaVuSans-6e" transform="translate(1549.068359 0)"/>
    <use xlink:href="#DejaVuSans-65" transform="translate(1612.447266 0)"/>
    <use xlink:href="#DejaVuSans-20" transform="translate(1673.970703 0)"/>
    <use xlink:href="#DejaVuSans-3f" transform="translate(1705.757812 0)"/>
    <use xlink:href="#DejaVuSans-20" transform="translate(1758.833984 0)"/>
    <use xlink:href="#DejaVuSans-52" transform="translate(1790.621094 0)"/>
    <use xlink:href="#DejaVuSans-65" transform="translate(1855.603516 0)"/>
    <use xlink:href="#DejaVuSans-63" transform="translate(1917.126953 0)"/>
    <use xlink:href="#DejaVuSans-61" transform="translate(1972.107422 0)"/>
    <use xlink:href="#DejaVuSans-6c" transform="translate(2033.386719 0)"/>
    <use xlink:href="#DejaVuSans-6c" transform="translate(2061.169922 0)"/>
    <use xlink:href="#DejaVuSans-20" transform="translate(2088.953125 0)"/>
    <use xlink:href="#DejaVuSans-3f" transform="translate(2120.740234 0)"/>
    <use xlink:href="#DejaVuSans-20" transform="translate(2173.816406 0)"/>
    <use xlink:href="#DejaVuSans-46" transform="translate(2205.603516 0)"/>
    <use xlink:href="#DejaVuSans-31" transform="translate(2263.123047 0)"/>
    <use xlink:href="#DejaVuSans-20" transform="translate(2326.746094 0)"/>
    <use xlink:href="#DejaVuSans-3f" transform="translate(2358.533203 0)"/>
    <use xlink:href="#DejaVuSans-3f" transform="translate(2411.609375 0)"/>
    <use xlink:href="#DejaVuSans-3f" transform="translate(2464.685547 0)"/>
    <use xlink:href="#DejaVuSans-46" transform="translate(2517.761719 0)"/>
    <use xlink:href="#DejaVuSans-31" transform="translate(2575.28125 0)"/>
    <use xlink:href="#DejaVuSans-3a" transform="translate(2638.904297 0)"/>
    <use xlink:href="#DejaVuSans-20" transform="translate(2672.595703 0)"/>
    <use xlink:href="#DejaVuSans-30" transform="translate(2704.382812 0)"/>
    <use xlink:href="#DejaVuSans-2e" transform="translate(2768.005859 0)"/>
    <use xlink:href="#DejaVuSans-30" transform="translate(2799.792969 0)"/>
    <use xlink:href="#DejaVuSans-39" transform="translate(2863.416016 0)"/>
    <use xlink:href="#DejaVuSans-32" transform="translate(2927.039062 0)"/>
    <use xlink:href="#DejaVuSans-33" transform="translate(2990.662109 0)"/>
    <use xlink:href="#DejaVuSans-30" transform="translate(3054.285156 0)"/>
    <use xlink:href="#DejaVuSans-38" transform="translate(3117.908203 0)"/>
    <use xlink:href="#DejaVuSans-20" transform="translate(3181.53125 0)"/>
    <use xlink:href="#DejaVuSans-3f" transform="translate(3213.318359 0)"/>
    <use xlink:href="#DejaVuSans-20" transform="translate(3266.394531 0)"/>
    <use xlink:href="#DejaVuSans-30" transform="translate(3298.181641 0)"/>
    <use xlink:href="#DejaVuSans-2e" transform="translate(3361.804688 0)"/>
    <use xlink:href="#DejaVuSans-31" transform="translate(3393.591797 0)"/>
    <use xlink:href="#DejaVuSans-32" transform="translate(3457.214844 0)"/>
    <use xlink:href="#DejaVuSans-31" transform="translate(3520.837891 0)"/>
    <use xlink:href="#DejaVuSans-32" transform="translate(3584.460938 0)"/>
    <use xlink:href="#DejaVuSans-31" transform="translate(3648.083984 0)"/>
    <use xlink:href="#DejaVuSans-32" transform="translate(3711.707031 0)"/>
    <use xlink:href="#DejaVuSans-3f" transform="translate(3775.330078 0)"/>
    <use xlink:href="#DejaVuSans-3f" transform="translate(3828.40625 0)"/>
   </g>
  </g>
  <g id="text_65">
   <!-- ? dev ???0-998??????????????????????????????????? -->
   <g style="fill: #0f172a" transform="translate(7.2 696.24) scale(0.115 -0.115)">
    <use xlink:href="#DejaVuSans-3f"/>
    <use xlink:href="#DejaVuSans-20" transform="translate(53.076172 0)"/>
    <use xlink:href="#DejaVuSans-64" transform="translate(84.863281 0)"/>
    <use xlink:href="#DejaVuSans-65" transform="translate(148.339844 0)"/>
    <use xlink:href="#DejaVuSans-76" transform="translate(209.863281 0)"/>
    <use xlink:href="#DejaVuSans-20" transform="translate(269.042969 0)"/>
    <use xlink:href="#DejaVuSans-3f" transform="translate(300.830078 0)"/>
    <use xlink:href="#DejaVuSans-3f" transform="translate(353.90625 0)"/>
    <use xlink:href="#DejaVuSans-3f" transform="translate(406.982422 0)"/>
    <use xlink:href="#DejaVuSans-30" transform="translate(460.058594 0)"/>
    <use xlink:href="#DejaVuSans-2d" transform="translate(523.681641 0)"/>
    <use xlink:href="#DejaVuSans-39" transform="translate(559.765625 0)"/>
    <use xlink:href="#DejaVuSans-39" transform="translate(623.388672 0)"/>
    <use xlink:href="#DejaVuSans-38" transform="translate(687.011719 0)"/>
    <use xlink:href="#DejaVuSans-3f" transform="translate(750.634766 0)"/>
    <use xlink:href="#DejaVuSans-3f" transform="translate(803.710938 0)"/>
    <use xlink:href="#DejaVuSans-3f" transform="translate(856.787109 0)"/>
    <use xlink:href="#DejaVuSans-3f" transform="translate(909.863281 0)"/>
    <use xlink:href="#DejaVuSans-3f" transform="translate(962.939453 0)"/>
    <use xlink:href="#DejaVuSans-3f" transform="translate(1016.015625 0)"/>
    <use xlink:href="#DejaVuSans-3f" transform="translate(1069.091797 0)"/>
    <use xlink:href="#DejaVuSans-3f" transform="translate(1122.167969 0)"/>
    <use xlink:href="#DejaVuSans-3f" transform="translate(1175.244141 0)"/>
    <use xlink:href="#DejaVuSans-3f" transform="translate(1228.320312 0)"/>
    <use xlink:href="#DejaVuSans-3f" transform="translate(1281.396484 0)"/>
    <use xlink:href="#DejaVuSans-3f" transform="translate(1334.472656 0)"/>
    <use xlink:href="#DejaVuSans-3f" transform="translate(1387.548828 0)"/>
    <use xlink:href="#DejaVuSans-3f" transform="translate(1440.625 0)"/>
    <use xlink:href="#DejaVuSans-3f" transform="translate(1493.701172 0)"/>
    <use xlink:href="#DejaVuSans-3f" transform="translate(1546.777344 0)"/>
    <use xlink:href="#DejaVuSans-3f" transform="translate(1599.853516 0)"/>
    <use xlink:href="#DejaVuSans-3f" transform="translate(1652.929688 0)"/>
    <use xlink:href="#DejaVuSans-3f" transform="translate(1706.005859 0)"/>
    <use xlink:href="#DejaVuSans-3f" transform="translate(1759.082031 0)"/>
    <use xlink:href="#DejaVuSans-3f" transform="translate(1812.158203 0)"/>
    <use xlink:href="#DejaVuSans-3f" transform="translate(1865.234375 0)"/>
    <use xlink:href="#DejaVuSans-3f" transform="translate(1918.310547 0)"/>
    <use xlink:href="#DejaVuSans-3f" transform="translate(1971.386719 0)"/>
    <use xlink:href="#DejaVuSans-3f" transform="translate(2024.462891 0)"/>
    <use xlink:href="#DejaVuSans-3f" transform="translate(2077.539062 0)"/>
    <use xlink:href="#DejaVuSans-3f" transform="translate(2130.615234 0)"/>
    <use xlink:href="#DejaVuSans-3f" transform="translate(2183.691406 0)"/>
    <use xlink:href="#DejaVuSans-3f" transform="translate(2236.767578 0)"/>
    <use xlink:href="#DejaVuSans-3f" transform="translate(2289.84375 0)"/>
    <use xlink:href="#DejaVuSans-3f" transform="translate(2342.919922 0)"/>
    <use xlink:href="#DejaVuSans-3f" transform="translate(2395.996094 0)"/>
    <use xlink:href="#DejaVuSans-3f" transform="translate(2449.072266 0)"/>
    <use xlink:href="#DejaVuSans-3f" transform="translate(2502.148438 0)"/>
    <use xlink:href="#DejaVuSans-3f" transform="translate(2555.224609 0)"/>
   </g>
  </g>
 </g>
</svg>
